<svg xmlns="http://www.w3.org/2000/svg" width="440" height="440">
 <g id="heptagon8-11" transform="translate(220,40) scale(1 1)">
  <g fill="#08f" fill-opacity="0.5" stroke="#008" id="pc"><path id="pc1" d="m -10 0 a 10 10 0 0 1 20 0 l 0 160 a 10 10 0 0 1 -20 0 l 0 -160 z m 5 -20 m 0 20 a 5 5 0 0 0 10 0 5 5 0 0 0 -10 0 m 0 20 a 5 5 0 0 0 10 0 5 5 0 0 0 -10 0 m 0 20 a 5 5 0 0 0 10 0 5 5 0 0 0 -10 0 m 0 20 a 5 5 0 0 0 10 0 5 5 0 0 0 -10 0 m 0 20 a 5 5 0 0 0 10 0 5 5 0 0 0 -10 0 m 0 20 a 5 5 0 0 0 10 0 5 5 0 0 0 -10 0 m 0 20 a 5 5 0 0 0 10 0 5 5 0 0 0 -10 0 m 0 20 a 5 5 0 0 0 10 0 5 5 0 0 0 -10 0 m 0 20 a 5 5 0 0 0 10 0 5 5 0 0 0 -10 0" transform="rotate(64.28571428571428)"></path><path id="pc2" d="m -10 0 a 10 10 0 0 1 20 0 l 0 160 a 10 10 0 0 1 -20 0 l 0 -160 z m 5 -20 m 0 20 a 5 5 0 0 0 10 0 5 5 0 0 0 -10 0 m 0 20 a 5 5 0 0 0 10 0 5 5 0 0 0 -10 0 m 0 20 a 5 5 0 0 0 10 0 5 5 0 0 0 -10 0 m 0 20 a 5 5 0 0 0 10 0 5 5 0 0 0 -10 0 m 0 20 a 5 5 0 0 0 10 0 5 5 0 0 0 -10 0 m 0 20 a 5 5 0 0 0 10 0 5 5 0 0 0 -10 0 m 0 20 a 5 5 0 0 0 10 0 5 5 0 0 0 -10 0 m 0 20 a 5 5 0 0 0 10 0 5 5 0 0 0 -10 0 m 0 20 a 5 5 0 0 0 10 0 5 5 0 0 0 -10 0" transform="rotate(-64.28571428571428)"></path><path id="pc3" d="m -10 0 a 10 10 0 0 1 20 0 l 0 160 a 10 10 0 0 1 -20 0 l 0 -160 z m 5 -20 m 0 20 a 5 5 0 0 0 10 0 5 5 0 0 0 -10 0 m 0 20 a 5 5 0 0 0 10 0 5 5 0 0 0 -10 0 m 0 20 a 5 5 0 0 0 10 0 5 5 0 0 0 -10 0 m 0 20 a 5 5 0 0 0 10 0 5 5 0 0 0 -10 0 m 0 20 a 5 5 0 0 0 10 0 5 5 0 0 0 -10 0 m 0 20 a 5 5 0 0 0 10 0 5 5 0 0 0 -10 0 m 0 20 a 5 5 0 0 0 10 0 5 5 0 0 0 -10 0 m 0 20 a 5 5 0 0 0 10 0 5 5 0 0 0 -10 0 m 0 20 a 5 5 0 0 0 10 0 5 5 0 0 0 -10 0" transform="rotate(64.28571428571428) translate(0 160) rotate(-51.42857142857143)"></path><path id="pc4" d="m -10 0 a 10 10 0 0 1 20 0 l 0 160 a 10 10 0 0 1 -20 0 l 0 -160 z m 5 -20 m 0 20 a 5 5 0 0 0 10 0 5 5 0 0 0 -10 0 m 0 20 a 5 5 0 0 0 10 0 5 5 0 0 0 -10 0 m 0 20 a 5 5 0 0 0 10 0 5 5 0 0 0 -10 0 m 0 20 a 5 5 0 0 0 10 0 5 5 0 0 0 -10 0 m 0 20 a 5 5 0 0 0 10 0 5 5 0 0 0 -10 0 m 0 20 a 5 5 0 0 0 10 0 5 5 0 0 0 -10 0 m 0 20 a 5 5 0 0 0 10 0 5 5 0 0 0 -10 0 m 0 20 a 5 5 0 0 0 10 0 5 5 0 0 0 -10 0 m 0 20 a 5 5 0 0 0 10 0 5 5 0 0 0 -10 0" transform="rotate(-64.28571428571428) translate(0 160) rotate(51.42857142857143)"></path><path id="pc5" d="m -10 0 a 10 10 0 0 1 20 0 l 0 160 a 10 10 0 0 1 -20 0 l 0 -160 z m 5 -20 m 0 20 a 5 5 0 0 0 10 0 5 5 0 0 0 -10 0 m 0 20 a 5 5 0 0 0 10 0 5 5 0 0 0 -10 0 m 0 20 a 5 5 0 0 0 10 0 5 5 0 0 0 -10 0 m 0 20 a 5 5 0 0 0 10 0 5 5 0 0 0 -10 0 m 0 20 a 5 5 0 0 0 10 0 5 5 0 0 0 -10 0 m 0 20 a 5 5 0 0 0 10 0 5 5 0 0 0 -10 0 m 0 20 a 5 5 0 0 0 10 0 5 5 0 0 0 -10 0 m 0 20 a 5 5 0 0 0 10 0 5 5 0 0 0 -10 0 m 0 20 a 5 5 0 0 0 10 0 5 5 0 0 0 -10 0" transform="rotate(64.28571428571428) translate(0 160) rotate(-51.42857142857143) translate(0 160) rotate(-51.42857142857143)"></path><path id="pc6" d="m -10 0 a 10 10 0 0 1 20 0 l 0 160 a 10 10 0 0 1 -20 0 l 0 -160 z m 5 -20 m 0 20 a 5 5 0 0 0 10 0 5 5 0 0 0 -10 0 m 0 20 a 5 5 0 0 0 10 0 5 5 0 0 0 -10 0 m 0 20 a 5 5 0 0 0 10 0 5 5 0 0 0 -10 0 m 0 20 a 5 5 0 0 0 10 0 5 5 0 0 0 -10 0 m 0 20 a 5 5 0 0 0 10 0 5 5 0 0 0 -10 0 m 0 20 a 5 5 0 0 0 10 0 5 5 0 0 0 -10 0 m 0 20 a 5 5 0 0 0 10 0 5 5 0 0 0 -10 0 m 0 20 a 5 5 0 0 0 10 0 5 5 0 0 0 -10 0 m 0 20 a 5 5 0 0 0 10 0 5 5 0 0 0 -10 0" transform="rotate(-64.28571428571428) translate(0 160) rotate(51.42857142857143) translate(0 160) rotate(51.42857142857143)"></path><path id="pc7" d="m -10 0 a 10 10 0 0 1 20 0 l 0 160 a 10 10 0 0 1 -20 0 l 0 -160 z m 5 -20 m 0 20 a 5 5 0 0 0 10 0 5 5 0 0 0 -10 0 m 0 20 a 5 5 0 0 0 10 0 5 5 0 0 0 -10 0 m 0 20 a 5 5 0 0 0 10 0 5 5 0 0 0 -10 0 m 0 20 a 5 5 0 0 0 10 0 5 5 0 0 0 -10 0 m 0 20 a 5 5 0 0 0 10 0 5 5 0 0 0 -10 0 m 0 20 a 5 5 0 0 0 10 0 5 5 0 0 0 -10 0 m 0 20 a 5 5 0 0 0 10 0 5 5 0 0 0 -10 0 m 0 20 a 5 5 0 0 0 10 0 5 5 0 0 0 -10 0 m 0 20 a 5 5 0 0 0 10 0 5 5 0 0 0 -10 0" transform="rotate(64.28571428571428) translate(0 160) rotate(-51.42857142857143) translate(0 160) rotate(-51.42857142857143) translate(0 160) rotate(-51.42857142857143)"></path><path id="pc8" d="m -10 0 a 10 10 0 0 1 20 0 l 0 160 a 10 10 0 0 1 -20 0 l 0 -160 z m 5 -20 m 0 20 a 5 5 0 0 0 10 0 5 5 0 0 0 -10 0 m 0 20 a 5 5 0 0 0 10 0 5 5 0 0 0 -10 0 m 0 20 a 5 5 0 0 0 10 0 5 5 0 0 0 -10 0 m 0 20 a 5 5 0 0 0 10 0 5 5 0 0 0 -10 0 m 0 20 a 5 5 0 0 0 10 0 5 5 0 0 0 -10 0 m 0 20 a 5 5 0 0 0 10 0 5 5 0 0 0 -10 0 m 0 20 a 5 5 0 0 0 10 0 5 5 0 0 0 -10 0 m 0 20 a 5 5 0 0 0 10 0 5 5 0 0 0 -10 0 m 0 20 a 5 5 0 0 0 10 0 5 5 0 0 0 -10 0" transform="rotate(12.857142857142861)"></path><path id="pc9" d="m -10 0 a 10 10 0 0 1 20 0 l 0 160 a 10 10 0 0 1 -20 0 l 0 -160 z m 5 -20 m 0 20 a 5 5 0 0 0 10 0 5 5 0 0 0 -10 0 m 0 20 a 5 5 0 0 0 10 0 5 5 0 0 0 -10 0 m 0 20 a 5 5 0 0 0 10 0 5 5 0 0 0 -10 0 m 0 20 a 5 5 0 0 0 10 0 5 5 0 0 0 -10 0 m 0 20 a 5 5 0 0 0 10 0 5 5 0 0 0 -10 0 m 0 20 a 5 5 0 0 0 10 0 5 5 0 0 0 -10 0 m 0 20 a 5 5 0 0 0 10 0 5 5 0 0 0 -10 0 m 0 20 a 5 5 0 0 0 10 0 5 5 0 0 0 -10 0 m 0 20 a 5 5 0 0 0 10 0 5 5 0 0 0 -10 0" transform="rotate(-12.857142857142861)"></path><path id="pc10" d="m -10 0 a 10 10 0 0 1 20 0 l 0 160 a 10 10 0 0 1 -20 0 l 0 -160 z m 5 -20 m 0 20 a 5 5 0 0 0 10 0 5 5 0 0 0 -10 0 m 0 20 a 5 5 0 0 0 10 0 5 5 0 0 0 -10 0 m 0 20 a 5 5 0 0 0 10 0 5 5 0 0 0 -10 0 m 0 20 a 5 5 0 0 0 10 0 5 5 0 0 0 -10 0 m 0 20 a 5 5 0 0 0 10 0 5 5 0 0 0 -10 0 m 0 20 a 5 5 0 0 0 10 0 5 5 0 0 0 -10 0 m 0 20 a 5 5 0 0 0 10 0 5 5 0 0 0 -10 0 m 0 20 a 5 5 0 0 0 10 0 5 5 0 0 0 -10 0 m 0 20 a 5 5 0 0 0 10 0 5 5 0 0 0 -10 0" transform="rotate(12.857142857142861) translate(0 160) rotate(51.42857142857143)"></path><path id="pc11" d="m -10 0 a 10 10 0 0 1 20 0 l 0 160 a 10 10 0 0 1 -20 0 l 0 -160 z m 5 -20 m 0 20 a 5 5 0 0 0 10 0 5 5 0 0 0 -10 0 m 0 20 a 5 5 0 0 0 10 0 5 5 0 0 0 -10 0 m 0 20 a 5 5 0 0 0 10 0 5 5 0 0 0 -10 0 m 0 20 a 5 5 0 0 0 10 0 5 5 0 0 0 -10 0 m 0 20 a 5 5 0 0 0 10 0 5 5 0 0 0 -10 0 m 0 20 a 5 5 0 0 0 10 0 5 5 0 0 0 -10 0 m 0 20 a 5 5 0 0 0 10 0 5 5 0 0 0 -10 0 m 0 20 a 5 5 0 0 0 10 0 5 5 0 0 0 -10 0 m 0 20 a 5 5 0 0 0 10 0 5 5 0 0 0 -10 0" transform="rotate(-12.857142857142861) translate(0 160) rotate(-51.42857142857143)"></path></g>
  <g fill="#f80" fill-opacity="0.5" stroke="#800" id="pd"><path id="pd1" d="m -10 0 a 10 10 0 0 1 20 0 l 0 220 a 10 10 0 0 1 -20 0 l 0 -220 z m 5 -20 m 0 20 a 5 5 0 0 0 10 0 5 5 0 0 0 -10 0 m 0 20 a 5 5 0 0 0 10 0 5 5 0 0 0 -10 0 m 0 20 a 5 5 0 0 0 10 0 5 5 0 0 0 -10 0 m 0 20 a 5 5 0 0 0 10 0 5 5 0 0 0 -10 0 m 0 20 a 5 5 0 0 0 10 0 5 5 0 0 0 -10 0 m 0 20 a 5 5 0 0 0 10 0 5 5 0 0 0 -10 0 m 0 20 a 5 5 0 0 0 10 0 5 5 0 0 0 -10 0 m 0 20 a 5 5 0 0 0 10 0 5 5 0 0 0 -10 0 m 0 20 a 5 5 0 0 0 10 0 5 5 0 0 0 -10 0 m 0 20 a 5 5 0 0 0 10 0 5 5 0 0 0 -10 0 m 0 20 a 5 5 0 0 0 10 0 5 5 0 0 0 -10 0 m 0 20 a 5 5 0 0 0 10 0 5 5 0 0 0 -10 0" transform="rotate(64.28571428571428) translate(0 160) rotate(-51.42857142857143) translate(0 160) rotate(-51.42857142857143) translate(0 20) rotate(-74.1)"></path><path id="pd2" d="m -10 0 a 10 10 0 0 1 20 0 l 0 220 a 10 10 0 0 1 -20 0 l 0 -220 z m 5 -20 m 0 20 a 5 5 0 0 0 10 0 5 5 0 0 0 -10 0 m 0 20 a 5 5 0 0 0 10 0 5 5 0 0 0 -10 0 m 0 20 a 5 5 0 0 0 10 0 5 5 0 0 0 -10 0 m 0 20 a 5 5 0 0 0 10 0 5 5 0 0 0 -10 0 m 0 20 a 5 5 0 0 0 10 0 5 5 0 0 0 -10 0 m 0 20 a 5 5 0 0 0 10 0 5 5 0 0 0 -10 0 m 0 20 a 5 5 0 0 0 10 0 5 5 0 0 0 -10 0 m 0 20 a 5 5 0 0 0 10 0 5 5 0 0 0 -10 0 m 0 20 a 5 5 0 0 0 10 0 5 5 0 0 0 -10 0 m 0 20 a 5 5 0 0 0 10 0 5 5 0 0 0 -10 0 m 0 20 a 5 5 0 0 0 10 0 5 5 0 0 0 -10 0 m 0 20 a 5 5 0 0 0 10 0 5 5 0 0 0 -10 0" transform="rotate(64.28571428571428) translate(0 160) rotate(-51.42857142857143) translate(0 160) rotate(-51.42857142857143) translate(0 140) rotate(-105.7)"></path><path id="pd3" d="m -10 0 a 10 10 0 0 1 20 0 l 0 220 a 10 10 0 0 1 -20 0 l 0 -220 z m 5 -20 m 0 20 a 5 5 0 0 0 10 0 5 5 0 0 0 -10 0 m 0 20 a 5 5 0 0 0 10 0 5 5 0 0 0 -10 0 m 0 20 a 5 5 0 0 0 10 0 5 5 0 0 0 -10 0 m 0 20 a 5 5 0 0 0 10 0 5 5 0 0 0 -10 0 m 0 20 a 5 5 0 0 0 10 0 5 5 0 0 0 -10 0 m 0 20 a 5 5 0 0 0 10 0 5 5 0 0 0 -10 0 m 0 20 a 5 5 0 0 0 10 0 5 5 0 0 0 -10 0 m 0 20 a 5 5 0 0 0 10 0 5 5 0 0 0 -10 0 m 0 20 a 5 5 0 0 0 10 0 5 5 0 0 0 -10 0 m 0 20 a 5 5 0 0 0 10 0 5 5 0 0 0 -10 0 m 0 20 a 5 5 0 0 0 10 0 5 5 0 0 0 -10 0 m 0 20 a 5 5 0 0 0 10 0 5 5 0 0 0 -10 0" transform="rotate(-64.28571428571428) translate(0 160) rotate(51.42857142857143) translate(0 160) rotate(51.42857142857143) translate(0 20) rotate(74.1)"></path><path id="pd4" d="m -10 0 a 10 10 0 0 1 20 0 l 0 220 a 10 10 0 0 1 -20 0 l 0 -220 z m 5 -20 m 0 20 a 5 5 0 0 0 10 0 5 5 0 0 0 -10 0 m 0 20 a 5 5 0 0 0 10 0 5 5 0 0 0 -10 0 m 0 20 a 5 5 0 0 0 10 0 5 5 0 0 0 -10 0 m 0 20 a 5 5 0 0 0 10 0 5 5 0 0 0 -10 0 m 0 20 a 5 5 0 0 0 10 0 5 5 0 0 0 -10 0 m 0 20 a 5 5 0 0 0 10 0 5 5 0 0 0 -10 0 m 0 20 a 5 5 0 0 0 10 0 5 5 0 0 0 -10 0 m 0 20 a 5 5 0 0 0 10 0 5 5 0 0 0 -10 0 m 0 20 a 5 5 0 0 0 10 0 5 5 0 0 0 -10 0 m 0 20 a 5 5 0 0 0 10 0 5 5 0 0 0 -10 0 m 0 20 a 5 5 0 0 0 10 0 5 5 0 0 0 -10 0 m 0 20 a 5 5 0 0 0 10 0 5 5 0 0 0 -10 0" transform="rotate(-64.28571428571428) translate(0 160) rotate(51.42857142857143) translate(0 160) rotate(51.42857142857143) translate(0 140) rotate(105.7)"></path></g>
 </g>
</svg>