<?xml version="1.0" encoding="UTF-8"?><svg xmlns="http://www.w3.org/2000/svg" width="300" height="300"><g transform="translate(171.42857142857142 120) scale(0.7 -0.7) rotate(0)" stroke-width="1px" stroke-linecap="round" stroke="#000"><g fill="#abc"><path d="m -5 0 a 5 5 0 0 1 10 0 l 0 200 a 5 5 0 0 1 -10 0 l 0 -200 z m 2.5 -10 m 0 10 a 2.5 2.5 0 0 0 5 0 2.5 2.5 0 0 0 -5 0 m 0 10 m 0 10 m 0 10 m 0 10 m 0 10 m 0 10 m 0 10 m 0 10 m 0 10 m 0 10 m 0 10 m 0 10 m 0 10 m 0 10 m 0 10 m 0 10 m 0 10 m 0 10 m 0 10 m 0 10 a 2.5 2.5 0 0 0 5 0 2.5 2.5 0 0 0 -5 0" transform="rotate(-45) translate(0 200) rotate(135) translate(0 200) rotate(129.73561031724535)" opacity="0.5"></path><path d="m -5 0 a 5 5 0 0 1 10 0 l 0 200 a 5 5 0 0 1 -10 0 l 0 -200 z m 2.5 -10 m 0 10 a 2.5 2.5 0 0 0 5 0 2.5 2.5 0 0 0 -5 0 m 0 10 m 0 10 m 0 10 m 0 10 m 0 10 m 0 10 m 0 10 m 0 10 m 0 10 m 0 10 m 0 10 m 0 10 m 0 10 m 0 10 m 0 10 m 0 10 m 0 10 m 0 10 m 0 10 m 0 10 a 2.5 2.5 0 0 0 5 0 2.5 2.5 0 0 0 -5 0" transform="rotate(-45) translate(0 200) rotate(135) translate(0 200) rotate(69.73561031724535)" opacity="0.5"></path><path d="m -5 0 a 5 5 0 0 1 10 0 l 0 200 a 5 5 0 0 1 -10 0 l 0 -200 z m 2.5 -10 m 0 10 a 2.5 2.5 0 0 0 5 0 2.5 2.5 0 0 0 -5 0 m 0 10 m 0 10 m 0 10 m 0 10 m 0 10 m 0 10 m 0 10 m 0 10 m 0 10 m 0 10 m 0 10 m 0 10 m 0 10 m 0 10 m 0 10 m 0 10 m 0 10 m 0 10 m 0 10 m 0 10 a 2.5 2.5 0 0 0 5 0 2.5 2.5 0 0 0 -5 0" transform="rotate(-45) translate(0 200) rotate(135) translate(0 200) rotate(69.73561031724535) translate(0 200) rotate(60)" opacity="0.5"></path><path d="m -5 0 a 5 5 0 0 1 10 0 l 0 200 a 5 5 0 0 1 -10 0 l 0 -200 z m 2.5 -10 m 0 10 a 2.5 2.5 0 0 0 5 0 2.5 2.5 0 0 0 -5 0 m 0 10 m 0 10 m 0 10 m 0 10 m 0 10 m 0 10 m 0 10 m 0 10 m 0 10 m 0 10 m 0 10 m 0 10 m 0 10 m 0 10 m 0 10 m 0 10 m 0 10 m 0 10 m 0 10 m 0 10 a 2.5 2.5 0 0 0 5 0 2.5 2.5 0 0 0 -5 0" transform="rotate(-45) translate(0 200) rotate(135) translate(0 200) rotate(69.73561031724535) translate(0 200) rotate(120)" opacity="0.5"></path><path d="m -5 0 a 5 5 0 0 1 10 0 l 0 200 a 5 5 0 0 1 -10 0 l 0 -200 z m 2.5 -10 m 0 10 a 2.5 2.5 0 0 0 5 0 2.5 2.5 0 0 0 -5 0 m 0 10 m 0 10 m 0 10 m 0 10 m 0 10 m 0 10 m 0 10 m 0 10 m 0 10 m 0 10 m 0 10 m 0 10 m 0 10 m 0 10 m 0 10 m 0 10 m 0 10 m 0 10 m 0 10 m 0 10 a 2.5 2.5 0 0 0 5 0 2.5 2.5 0 0 0 -5 0" transform="rotate(-45) translate(0 200) rotate(135) translate(0 200) rotate(129.73561031724535) translate(0 200) rotate(-60)" opacity="0.5"></path></g><g fill="#bcd"><path d="m -5 0 a 5 5 0 0 1 10 0 l 0 200 a 5 5 0 0 1 -10 0 l 0 -200 z m 2.5 -10 m 0 10 a 2.5 2.5 0 0 0 5 0 2.5 2.5 0 0 0 -5 0 m 0 10 m 0 10 m 0 10 m 0 10 m 0 10 m 0 10 m 0 10 m 0 10 m 0 10 m 0 10 m 0 10 m 0 10 m 0 10 m 0 10 m 0 10 m 0 10 m 0 10 m 0 10 m 0 10 m 0 10 a 2.5 2.5 0 0 0 5 0 2.5 2.5 0 0 0 -5 0" transform="rotate(-45) translate(0 0) rotate(0)" opacity="0.5"></path><path d="m -5 0 a 5 5 0 0 1 10 0 l 0 200 a 5 5 0 0 1 -10 0 l 0 -200 z m 2.5 -10 m 0 10 a 2.5 2.5 0 0 0 5 0 2.5 2.5 0 0 0 -5 0 m 0 10 m 0 10 m 0 10 m 0 10 m 0 10 m 0 10 m 0 10 m 0 10 m 0 10 m 0 10 m 0 10 m 0 10 m 0 10 m 0 10 m 0 10 m 0 10 m 0 10 m 0 10 m 0 10 m 0 10 a 2.5 2.5 0 0 0 5 0 2.5 2.5 0 0 0 -5 0" transform="rotate(-45) translate(0 200) rotate(-135)" opacity="0.5"></path><path d="m -5 0 a 5 5 0 0 1 10 0 l 0 200 a 5 5 0 0 1 -10 0 l 0 -200 z m 2.5 -10 m 0 10 a 2.5 2.5 0 0 0 5 0 2.5 2.5 0 0 0 -5 0 m 0 10 m 0 10 m 0 10 m 0 10 m 0 10 m 0 10 m 0 10 m 0 10 m 0 10 m 0 10 m 0 10 m 0 10 m 0 10 m 0 10 m 0 10 m 0 10 m 0 10 m 0 10 m 0 10 m 0 10 a 2.5 2.5 0 0 0 5 0 2.5 2.5 0 0 0 -5 0" transform="rotate(-180) translate(0 200) rotate(135)" opacity="0.5"></path><path d="m -5 0 a 5 5 0 0 1 10 0 l 0 200 a 5 5 0 0 1 -10 0 l 0 -200 z m 2.5 -10 m 0 10 a 2.5 2.5 0 0 0 5 0 2.5 2.5 0 0 0 -5 0 m 0 10 m 0 10 m 0 10 m 0 10 m 0 10 m 0 10 m 0 10 m 0 10 m 0 10 m 0 10 m 0 10 m 0 10 m 0 10 m 0 10 m 0 10 m 0 10 m 0 10 m 0 10 m 0 10 m 0 10 a 2.5 2.5 0 0 0 5 0 2.5 2.5 0 0 0 -5 0" transform="rotate(-270) translate(0 200) rotate(-135)" opacity="0.5"></path><path d="m -5 0 a 5 5 0 0 1 10 0 l 0 200 a 5 5 0 0 1 -10 0 l 0 -200 z m 2.5 -10 m 0 10 a 2.5 2.5 0 0 0 5 0 2.5 2.5 0 0 0 -5 0 m 0 10 m 0 10 m 0 10 m 0 10 m 0 10 m 0 10 m 0 10 m 0 10 m 0 10 m 0 10 m 0 10 m 0 10 m 0 10 m 0 10 m 0 10 m 0 10 m 0 10 m 0 10 m 0 10 m 0 10 a 2.5 2.5 0 0 0 5 0 2.5 2.5 0 0 0 -5 0" transform="rotate(-45) translate(0 200) rotate(135)" opacity="0.5"></path></g><g fill="#cde"><path d="m -5 0 a 5 5 0 0 1 10 0 l 0 200 a 5 5 0 0 1 -10 0 l 0 -200 z m 2.5 -10 m 0 10 a 2.5 2.5 0 0 0 5 0 2.5 2.5 0 0 0 -5 0 m 0 10 m 0 10 m 0 10 m 0 10 m 0 10 m 0 10 m 0 10 m 0 10 m 0 10 m 0 10 m 0 10 m 0 10 m 0 10 m 0 10 m 0 10 m 0 10 m 0 10 m 0 10 m 0 10 m 0 10 a 2.5 2.5 0 0 0 5 0 2.5 2.5 0 0 0 -5 0" transform="rotate(-45) translate(0 200) rotate(-135) translate(0 200) rotate(-129.73561031724535)" opacity="0.5"></path><path d="m -5 0 a 5 5 0 0 1 10 0 l 0 200 a 5 5 0 0 1 -10 0 l 0 -200 z m 2.5 -10 m 0 10 a 2.5 2.5 0 0 0 5 0 2.5 2.5 0 0 0 -5 0 m 0 10 m 0 10 m 0 10 m 0 10 m 0 10 m 0 10 m 0 10 m 0 10 m 0 10 m 0 10 m 0 10 m 0 10 m 0 10 m 0 10 m 0 10 m 0 10 m 0 10 m 0 10 m 0 10 m 0 10 a 2.5 2.5 0 0 0 5 0 2.5 2.5 0 0 0 -5 0" transform="rotate(-45) translate(0 200) rotate(-135) translate(0 200) rotate(-69.73561031724535)" opacity="0.5"></path><path d="m -5 0 a 5 5 0 0 1 10 0 l 0 200 a 5 5 0 0 1 -10 0 l 0 -200 z m 2.5 -10 m 0 10 a 2.5 2.5 0 0 0 5 0 2.5 2.5 0 0 0 -5 0 m 0 10 m 0 10 m 0 10 m 0 10 m 0 10 m 0 10 m 0 10 m 0 10 m 0 10 m 0 10 m 0 10 m 0 10 m 0 10 m 0 10 m 0 10 m 0 10 m 0 10 m 0 10 m 0 10 m 0 10 a 2.5 2.5 0 0 0 5 0 2.5 2.5 0 0 0 -5 0" transform="rotate(-45) translate(0 200) rotate(-135) translate(0 200) rotate(-129.73561031724535) translate(0 200) rotate(60)" opacity="0.5"></path><path d="m -5 0 a 5 5 0 0 1 10 0 l 0 200 a 5 5 0 0 1 -10 0 l 0 -200 z m 2.5 -10 m 0 10 a 2.5 2.5 0 0 0 5 0 2.5 2.5 0 0 0 -5 0 m 0 10 m 0 10 m 0 10 m 0 10 m 0 10 m 0 10 m 0 10 m 0 10 m 0 10 m 0 10 m 0 10 m 0 10 m 0 10 m 0 10 m 0 10 m 0 10 m 0 10 m 0 10 m 0 10 m 0 10 a 2.5 2.5 0 0 0 5 0 2.5 2.5 0 0 0 -5 0" transform="rotate(-45) translate(0 200) rotate(-135) translate(0 200) rotate(-69.73561031724535) translate(0 200) rotate(-120)" opacity="0.5"></path><path d="m -5 0 a 5 5 0 0 1 10 0 l 0 200 a 5 5 0 0 1 -10 0 l 0 -200 z m 2.5 -10 m 0 10 a 2.5 2.5 0 0 0 5 0 2.5 2.5 0 0 0 -5 0 m 0 10 m 0 10 m 0 10 m 0 10 m 0 10 m 0 10 m 0 10 m 0 10 m 0 10 m 0 10 m 0 10 m 0 10 m 0 10 m 0 10 m 0 10 m 0 10 m 0 10 m 0 10 m 0 10 m 0 10 a 2.5 2.5 0 0 0 5 0 2.5 2.5 0 0 0 -5 0" transform="rotate(-45) translate(0 200) rotate(-135) translate(0 200) rotate(-69.73561031724535) translate(0 200) rotate(-60)" opacity="0.5"></path></g><g fill="#f00"><path d="m -5 0 a 5 5 0 0 1 10 0 l 0 200 a 5 5 0 0 1 -10 0 l 0 -200 z m 2.5 -10 m 0 10 a 2.5 2.5 0 0 0 5 0 2.5 2.5 0 0 0 -5 0 m 0 10 m 0 10 m 0 10 m 0 10 m 0 10 m 0 10 m 0 10 m 0 10 m 0 10 m 0 10 m 0 10 m 0 10 m 0 10 m 0 10 m 0 10 m 0 10 m 0 10 m 0 10 m 0 10 m 0 10 a 2.5 2.5 0 0 0 5 0 2.5 2.5 0 0 0 -5 0" transform="rotate(-180) translate(0 0) rotate(0)" opacity="0.5"></path><path d="m -5 0 a 5 5 0 0 1 10 0 l 0 200 a 5 5 0 0 1 -10 0 l 0 -200 z m 2.5 -10 m 0 10 a 2.5 2.5 0 0 0 5 0 2.5 2.5 0 0 0 -5 0 m 0 10 m 0 10 m 0 10 m 0 10 m 0 10 m 0 10 m 0 10 m 0 10 m 0 10 m 0 10 m 0 10 m 0 10 m 0 10 m 0 10 m 0 10 m 0 10 m 0 10 m 0 10 m 0 10 m 0 10 a 2.5 2.5 0 0 0 5 0 2.5 2.5 0 0 0 -5 0" transform="rotate(-270) translate(0 0) rotate(0)" opacity="0.5"></path><path d="m -5 0 a 5 5 0 0 1 10 0 l 0 200 a 5 5 0 0 1 -10 0 l 0 -200 z m 2.5 -10 m 0 10 a 2.5 2.5 0 0 0 5 0 2.5 2.5 0 0 0 -5 0 m 0 10 m 0 10 m 0 10 m 0 10 m 0 10 m 0 10 m 0 10 m 0 10 m 0 10 m 0 10 m 0 10 m 0 10 m 0 10 m 0 10 m 0 10 m 0 10 m 0 10 m 0 10 m 0 10 m 0 10 a 2.5 2.5 0 0 0 5 0 2.5 2.5 0 0 0 -5 0" transform="rotate(-180) translate(0 200) rotate(-90)" opacity="0.5"></path><path d="m -5 0 a 5 5 0 0 1 10 0 l 0 200 a 5 5 0 0 1 -10 0 l 0 -200 z m 2.5 -10 m 0 10 a 2.5 2.5 0 0 0 5 0 2.5 2.5 0 0 0 -5 0 m 0 10 m 0 10 m 0 10 m 0 10 m 0 10 m 0 10 m 0 10 m 0 10 m 0 10 m 0 10 m 0 10 m 0 10 m 0 10 m 0 10 m 0 10 m 0 10 m 0 10 m 0 10 m 0 10 m 0 10 a 2.5 2.5 0 0 0 5 0 2.5 2.5 0 0 0 -5 0" transform="rotate(-270) translate(0 200) rotate(90)" opacity="0.5"></path></g></g></svg>