<?xml version="1.0" encoding="UTF-8"?><svg xmlns="http://www.w3.org/2000/svg" width="300" height="300"><g transform="translate(150 120) scale(0.7 -0.7) rotate(0)" stroke-width="1px" stroke-linecap="round" stroke="#000"><g fill="#abc"><path d="m -9 0 a 9 9 0 0 1 18 0 l 0 108 a 9 9 0 0 1 -18 0 l 0 -108 z m 4.5 -18 m 0 18 a 4.5 4.5 0 0 0 9 0 4.5 4.5 0 0 0 -9 0 m 0 18 m 0 18 m 0 18 m 0 18 m 0 18 m 0 18 a 4.5 4.5 0 0 0 9 0 4.5 4.5 0 0 0 -9 0" transform="rotate(0) translate(0 0) rotate(0)" opacity="0.5"></path><path d="m -9 0 a 9 9 0 0 1 18 0 l 0 108 a 9 9 0 0 1 -18 0 l 0 -108 z m 4.5 -18 m 0 18 a 4.5 4.5 0 0 0 9 0 4.5 4.5 0 0 0 -9 0 m 0 18 m 0 18 m 0 18 m 0 18 m 0 18 m 0 18 a 4.5 4.5 0 0 0 9 0 4.5 4.5 0 0 0 -9 0" transform="rotate(-135) translate(0 108) rotate(-30)" opacity="0.5"></path><path d="m -9 0 a 9 9 0 0 1 18 0 l 0 108 a 9 9 0 0 1 -18 0 l 0 -108 z m 4.5 -18 m 0 18 a 4.5 4.5 0 0 0 9 0 4.5 4.5 0 0 0 -9 0 m 0 18 m 0 18 m 0 18 m 0 18 m 0 18 m 0 18 a 4.5 4.5 0 0 0 9 0 4.5 4.5 0 0 0 -9 0" transform="rotate(-135) translate(0 108) rotate(30)" opacity="0.5"></path><path d="m -9 0 a 9 9 0 0 1 18 0 l 0 108 a 9 9 0 0 1 -18 0 l 0 -108 z m 4.5 -18 m 0 18 a 4.5 4.5 0 0 0 9 0 4.5 4.5 0 0 0 -9 0 m 0 18 m 0 18 m 0 18 m 0 18 m 0 18 m 0 18 a 4.5 4.5 0 0 0 9 0 4.5 4.5 0 0 0 -9 0" transform="rotate(-135) translate(0 108) rotate(90)" opacity="0.5"></path><path d="m -9 0 a 9 9 0 0 1 18 0 l 0 108 a 9 9 0 0 1 -18 0 l 0 -108 z m 4.5 -18 m 0 18 a 4.5 4.5 0 0 0 9 0 4.5 4.5 0 0 0 -9 0 m 0 18 m 0 18 m 0 18 m 0 18 m 0 18 m 0 18 a 4.5 4.5 0 0 0 9 0 4.5 4.5 0 0 0 -9 0" transform="rotate(-135) translate(0 108) rotate(-30) translate(0 108) rotate(-120)" opacity="0.5"></path><path d="m -9 0 a 9 9 0 0 1 18 0 l 0 108 a 9 9 0 0 1 -18 0 l 0 -108 z m 4.5 -18 m 0 18 a 4.5 4.5 0 0 0 9 0 4.5 4.5 0 0 0 -9 0 m 0 18 m 0 18 m 0 18 m 0 18 m 0 18 m 0 18 a 4.5 4.5 0 0 0 9 0 4.5 4.5 0 0 0 -9 0" transform="rotate(-135) translate(0 108) rotate(-30) translate(0 108) rotate(120)" opacity="0.5"></path><path d="m -9 0 a 9 9 0 0 1 18 0 l 0 108 a 9 9 0 0 1 -18 0 l 0 -108 z m 4.5 -18 m 0 18 a 4.5 4.5 0 0 0 9 0 4.5 4.5 0 0 0 -9 0 m 0 18 m 0 18 m 0 18 m 0 18 m 0 18 m 0 18 a 4.5 4.5 0 0 0 9 0 4.5 4.5 0 0 0 -9 0" transform="rotate(-135) translate(0 108) rotate(90) translate(0 108) rotate(-120)" opacity="0.5"></path><path d="m -9 0 a 9 9 0 0 1 18 0 l 0 108 a 9 9 0 0 1 -18 0 l 0 -108 z m 4.5 -18 m 0 18 a 4.5 4.5 0 0 0 9 0 4.5 4.5 0 0 0 -9 0 m 0 18 m 0 18 m 0 18 m 0 18 m 0 18 m 0 18 a 4.5 4.5 0 0 0 9 0 4.5 4.5 0 0 0 -9 0" transform="rotate(-135) translate(0 108) rotate(90) translate(0 108) rotate(129.73561031724535)" opacity="0.5"></path><path d="m -9 0 a 9 9 0 0 1 18 0 l 0 108 a 9 9 0 0 1 -18 0 l 0 -108 z m 4.5 -18 m 0 18 a 4.5 4.5 0 0 0 9 0 4.5 4.5 0 0 0 -9 0 m 0 18 m 0 18 m 0 18 m 0 18 m 0 18 m 0 18 a 4.5 4.5 0 0 0 9 0 4.5 4.5 0 0 0 -9 0" transform="rotate(-135) translate(0 108) rotate(90) translate(0 108) rotate(69.73561031724535)" opacity="0.5"></path><path d="m -9 0 a 9 9 0 0 1 18 0 l 0 108 a 9 9 0 0 1 -18 0 l 0 -108 z m 4.5 -18 m 0 18 a 4.5 4.5 0 0 0 9 0 4.5 4.5 0 0 0 -9 0 m 0 18 m 0 18 m 0 18 m 0 18 m 0 18 m 0 18 a 4.5 4.5 0 0 0 9 0 4.5 4.5 0 0 0 -9 0" transform="rotate(-135) translate(0 108) rotate(90) translate(0 108) rotate(69.73561031724535) translate(0 108) rotate(120)" opacity="0.5"></path><path d="m -9 0 a 9 9 0 0 1 18 0 l 0 108 a 9 9 0 0 1 -18 0 l 0 -108 z m 4.5 -18 m 0 18 a 4.5 4.5 0 0 0 9 0 4.5 4.5 0 0 0 -9 0 m 0 18 m 0 18 m 0 18 m 0 18 m 0 18 m 0 18 a 4.5 4.5 0 0 0 9 0 4.5 4.5 0 0 0 -9 0" transform="rotate(-135) translate(0 108) rotate(90) translate(0 108) rotate(69.73561031724535) translate(0 108) rotate(60)" opacity="0.5"></path><path d="m -9 0 a 9 9 0 0 1 18 0 l 0 108 a 9 9 0 0 1 -18 0 l 0 -108 z m 4.5 -18 m 0 18 a 4.5 4.5 0 0 0 9 0 4.5 4.5 0 0 0 -9 0 m 0 18 m 0 18 m 0 18 m 0 18 m 0 18 m 0 18 a 4.5 4.5 0 0 0 9 0 4.5 4.5 0 0 0 -9 0" transform="rotate(-135) translate(0 108) rotate(90) translate(0 108) rotate(69.73561031724535) translate(0 108) rotate(60) translate(0 108) rotate(120)" opacity="0.5"></path><path d="m -9 0 a 9 9 0 0 1 18 0 l 0 108 a 9 9 0 0 1 -18 0 l 0 -108 z m 4.5 -18 m 0 18 a 4.5 4.5 0 0 0 9 0 4.5 4.5 0 0 0 -9 0 m 0 18 m 0 18 m 0 18 m 0 18 m 0 18 m 0 18 a 4.5 4.5 0 0 0 9 0 4.5 4.5 0 0 0 -9 0" transform="rotate(135) translate(0 108) rotate(30)" opacity="0.5"></path><path d="m -9 0 a 9 9 0 0 1 18 0 l 0 108 a 9 9 0 0 1 -18 0 l 0 -108 z m 4.5 -18 m 0 18 a 4.5 4.5 0 0 0 9 0 4.5 4.5 0 0 0 -9 0 m 0 18 m 0 18 m 0 18 m 0 18 m 0 18 m 0 18 a 4.5 4.5 0 0 0 9 0 4.5 4.5 0 0 0 -9 0" transform="rotate(135) translate(0 108) rotate(-30)" opacity="0.5"></path><path d="m -9 0 a 9 9 0 0 1 18 0 l 0 108 a 9 9 0 0 1 -18 0 l 0 -108 z m 4.5 -18 m 0 18 a 4.5 4.5 0 0 0 9 0 4.5 4.5 0 0 0 -9 0 m 0 18 m 0 18 m 0 18 m 0 18 m 0 18 m 0 18 a 4.5 4.5 0 0 0 9 0 4.5 4.5 0 0 0 -9 0" transform="rotate(135) translate(0 108) rotate(-90)" opacity="0.5"></path><path d="m -9 0 a 9 9 0 0 1 18 0 l 0 108 a 9 9 0 0 1 -18 0 l 0 -108 z m 4.5 -18 m 0 18 a 4.5 4.5 0 0 0 9 0 4.5 4.5 0 0 0 -9 0 m 0 18 m 0 18 m 0 18 m 0 18 m 0 18 m 0 18 a 4.5 4.5 0 0 0 9 0 4.5 4.5 0 0 0 -9 0" transform="rotate(135) translate(0 108) rotate(30) translate(0 108) rotate(120)" opacity="0.5"></path><path d="m -9 0 a 9 9 0 0 1 18 0 l 0 108 a 9 9 0 0 1 -18 0 l 0 -108 z m 4.5 -18 m 0 18 a 4.5 4.5 0 0 0 9 0 4.5 4.5 0 0 0 -9 0 m 0 18 m 0 18 m 0 18 m 0 18 m 0 18 m 0 18 a 4.5 4.5 0 0 0 9 0 4.5 4.5 0 0 0 -9 0" transform="rotate(135) translate(0 108) rotate(30) translate(0 108) rotate(-120)" opacity="0.5"></path><path d="m -9 0 a 9 9 0 0 1 18 0 l 0 108 a 9 9 0 0 1 -18 0 l 0 -108 z m 4.5 -18 m 0 18 a 4.5 4.5 0 0 0 9 0 4.5 4.5 0 0 0 -9 0 m 0 18 m 0 18 m 0 18 m 0 18 m 0 18 m 0 18 a 4.5 4.5 0 0 0 9 0 4.5 4.5 0 0 0 -9 0" transform="rotate(135) translate(0 108) rotate(-90) translate(0 108) rotate(120)" opacity="0.5"></path><path d="m -9 0 a 9 9 0 0 1 18 0 l 0 108 a 9 9 0 0 1 -18 0 l 0 -108 z m 4.5 -18 m 0 18 a 4.5 4.5 0 0 0 9 0 4.5 4.5 0 0 0 -9 0 m 0 18 m 0 18 m 0 18 m 0 18 m 0 18 m 0 18 a 4.5 4.5 0 0 0 9 0 4.5 4.5 0 0 0 -9 0" transform="rotate(135) translate(0 108) rotate(-90) translate(0 108) rotate(-129.73561031724535)" opacity="0.5"></path><path d="m -9 0 a 9 9 0 0 1 18 0 l 0 108 a 9 9 0 0 1 -18 0 l 0 -108 z m 4.5 -18 m 0 18 a 4.5 4.5 0 0 0 9 0 4.5 4.5 0 0 0 -9 0 m 0 18 m 0 18 m 0 18 m 0 18 m 0 18 m 0 18 a 4.5 4.5 0 0 0 9 0 4.5 4.5 0 0 0 -9 0" transform="rotate(135) translate(0 108) rotate(-90) translate(0 108) rotate(-69.73561031724535)" opacity="0.5"></path><path d="m -9 0 a 9 9 0 0 1 18 0 l 0 108 a 9 9 0 0 1 -18 0 l 0 -108 z m 4.5 -18 m 0 18 a 4.5 4.5 0 0 0 9 0 4.5 4.5 0 0 0 -9 0 m 0 18 m 0 18 m 0 18 m 0 18 m 0 18 m 0 18 a 4.5 4.5 0 0 0 9 0 4.5 4.5 0 0 0 -9 0" transform="rotate(135) translate(0 108) rotate(-90) translate(0 108) rotate(-69.73561031724535) translate(0 108) rotate(-120)" opacity="0.5"></path><path d="m -9 0 a 9 9 0 0 1 18 0 l 0 108 a 9 9 0 0 1 -18 0 l 0 -108 z m 4.5 -18 m 0 18 a 4.5 4.5 0 0 0 9 0 4.5 4.5 0 0 0 -9 0 m 0 18 m 0 18 m 0 18 m 0 18 m 0 18 m 0 18 a 4.5 4.5 0 0 0 9 0 4.5 4.5 0 0 0 -9 0" transform="rotate(135) translate(0 108) rotate(-90) translate(0 108) rotate(-69.73561031724535) translate(0 108) rotate(-60)" opacity="0.5"></path><path d="m -9 0 a 9 9 0 0 1 18 0 l 0 108 a 9 9 0 0 1 -18 0 l 0 -108 z m 4.5 -18 m 0 18 a 4.5 4.5 0 0 0 9 0 4.5 4.5 0 0 0 -9 0 m 0 18 m 0 18 m 0 18 m 0 18 m 0 18 m 0 18 a 4.5 4.5 0 0 0 9 0 4.5 4.5 0 0 0 -9 0" transform="rotate(135) translate(0 108) rotate(-90) translate(0 108) rotate(-69.73561031724535) translate(0 108) rotate(-60) translate(0 108) rotate(-120)" opacity="0.5"></path></g><g fill="#f00"><path d="m -9 0 a 9 9 0 0 1 18 0 l 0 108 a 9 9 0 0 1 -18 0 l 0 -108 z m 4.5 -18 m 0 18 a 4.5 4.5 0 0 0 9 0 4.5 4.5 0 0 0 -9 0 m 0 18 m 0 18 m 0 18 m 0 18 m 0 18 m 0 18 a 4.5 4.5 0 0 0 9 0 4.5 4.5 0 0 0 -9 0" transform="rotate(-135) translate(0 0) rotate(0)" opacity="0.5"></path><path d="m -9 0 a 9 9 0 0 1 18 0 l 0 108 a 9 9 0 0 1 -18 0 l 0 -108 z m 4.5 -18 m 0 18 a 4.5 4.5 0 0 0 9 0 4.5 4.5 0 0 0 -9 0 m 0 18 m 0 18 m 0 18 m 0 18 m 0 18 m 0 18 a 4.5 4.5 0 0 0 9 0 4.5 4.5 0 0 0 -9 0" transform="rotate(-135) translate(0 108) rotate(-90)" opacity="0.5"></path><path d="m -9 0 a 9 9 0 0 1 18 0 l 0 108 a 9 9 0 0 1 -18 0 l 0 -108 z m 4.5 -18 m 0 18 a 4.5 4.5 0 0 0 9 0 4.5 4.5 0 0 0 -9 0 m 0 18 m 0 18 m 0 18 m 0 18 m 0 18 m 0 18 a 4.5 4.5 0 0 0 9 0 4.5 4.5 0 0 0 -9 0" transform="rotate(135) translate(0 0) rotate(0)" opacity="0.5"></path><path d="m -9 0 a 9 9 0 0 1 18 0 l 0 108 a 9 9 0 0 1 -18 0 l 0 -108 z m 4.5 -18 m 0 18 a 4.5 4.5 0 0 0 9 0 4.5 4.5 0 0 0 -9 0 m 0 18 m 0 18 m 0 18 m 0 18 m 0 18 m 0 18 a 4.5 4.5 0 0 0 9 0 4.5 4.5 0 0 0 -9 0" transform="rotate(135) translate(0 108) rotate(90)" opacity="0.5"></path></g></g></svg>