<?xml version="1.0" encoding="UTF-8"?><svg xmlns="http://www.w3.org/2000/svg" width="200" height="200"><g transform="translate(100 100) scale(0.5 -0.5) rotate(0)" stroke-width="1px" stroke-linecap="round" stroke="#000"><g fill="#08f"><path d="m -35 0 a 35 35 0 0 1 70 0 l 0 140 a 35 35 0 0 1 -70 0 l 0 -140 z m 17.5 -70 m 0 70 a 17.5 17.5 0 0 0 35 0 17.5 17.5 0 0 0 -35 0 m 0 70 m 0 70 a 17.5 17.5 0 0 0 35 0 17.5 17.5 0 0 0 -35 0" transform="rotate(0) translate(0 140) rotate(120)" opacity="0.5"></path><path d="m -35 0 a 35 35 0 0 1 70 0 l 0 140 a 35 35 0 0 1 -70 0 l 0 -140 z m 17.5 -70 m 0 70 a 17.5 17.5 0 0 0 35 0 17.5 17.5 0 0 0 -35 0 m 0 70 m 0 70 a 17.5 17.5 0 0 0 35 0 17.5 17.5 0 0 0 -35 0" transform="rotate(-60) translate(0 140) rotate(120)" opacity="0.5"></path><path d="m -35 0 a 35 35 0 0 1 70 0 l 0 140 a 35 35 0 0 1 -70 0 l 0 -140 z m 17.5 -70 m 0 70 a 17.5 17.5 0 0 0 35 0 17.5 17.5 0 0 0 -35 0 m 0 70 m 0 70 a 17.5 17.5 0 0 0 35 0 17.5 17.5 0 0 0 -35 0" transform="rotate(-120) translate(0 140) rotate(120)" opacity="0.5"></path><path d="m -35 0 a 35 35 0 0 1 70 0 l 0 140 a 35 35 0 0 1 -70 0 l 0 -140 z m 17.5 -70 m 0 70 a 17.5 17.5 0 0 0 35 0 17.5 17.5 0 0 0 -35 0 m 0 70 m 0 70 a 17.5 17.5 0 0 0 35 0 17.5 17.5 0 0 0 -35 0" transform="rotate(-180) translate(0 140) rotate(120)" opacity="0.5"></path><path d="m -35 0 a 35 35 0 0 1 70 0 l 0 140 a 35 35 0 0 1 -70 0 l 0 -140 z m 17.5 -70 m 0 70 a 17.5 17.5 0 0 0 35 0 17.5 17.5 0 0 0 -35 0 m 0 70 m 0 70 a 17.5 17.5 0 0 0 35 0 17.5 17.5 0 0 0 -35 0" transform="rotate(-240) translate(0 140) rotate(120)" opacity="0.5"></path><path d="m -35 0 a 35 35 0 0 1 70 0 l 0 140 a 35 35 0 0 1 -70 0 l 0 -140 z m 17.5 -70 m 0 70 a 17.5 17.5 0 0 0 35 0 17.5 17.5 0 0 0 -35 0 m 0 70 m 0 70 a 17.5 17.5 0 0 0 35 0 17.5 17.5 0 0 0 -35 0" transform="rotate(-300) translate(0 140) rotate(120)" opacity="0.5"></path></g><g fill="#f20"><path d="m -35 0 a 35 35 0 0 1 70 0 l 0 280 a 35 35 0 0 1 -70 0 l 0 -280 z m 17.5 -70 m 0 70 a 17.5 17.5 0 0 0 35 0 17.5 17.5 0 0 0 -35 0 m 0 70 m 0 70 a 17.5 17.5 0 0 0 35 0 17.5 17.5 0 0 0 -35 0 m 0 70 m 0 70 a 17.5 17.5 0 0 0 35 0 17.5 17.5 0 0 0 -35 0" transform="rotate(0) translate(0 140) rotate(180)" opacity="0.5"></path><path d="m -35 0 a 35 35 0 0 1 70 0 l 0 280 a 35 35 0 0 1 -70 0 l 0 -280 z m 17.5 -70 m 0 70 a 17.5 17.5 0 0 0 35 0 17.5 17.5 0 0 0 -35 0 m 0 70 m 0 70 a 17.5 17.5 0 0 0 35 0 17.5 17.5 0 0 0 -35 0 m 0 70 m 0 70 a 17.5 17.5 0 0 0 35 0 17.5 17.5 0 0 0 -35 0" transform="rotate(-60) translate(0 140) rotate(180)" opacity="0.5"></path></g></g></svg>