<?xml version="1.0" encoding="UTF-8"?><svg xmlns="http://www.w3.org/2000/svg" width="200" height="200"><g transform="translate(100 100) scale(0.5 -0.5) rotate(0)" stroke-width="1px" stroke-linecap="round" stroke="#000"><g fill="#08f"><path d="m -12.5 0 a 12.5 12.5 0 0 1 25 0 l 0 200 a 12.5 12.5 0 0 1 -25 0 l 0 -200 z m 6.25 -25 m 0 25 a 6.25 6.25 0 0 0 12.5 0 6.25 6.25 0 0 0 -12.5 0 m 0 25 m 0 25 a 6.25 6.25 0 0 0 12.5 0 6.25 6.25 0 0 0 -12.5 0 m 0 25 m 0 25 a 6.25 6.25 0 0 0 12.5 0 6.25 6.25 0 0 0 -12.5 0 m 0 25 m 0 25 a 6.25 6.25 0 0 0 12.5 0 6.25 6.25 0 0 0 -12.5 0 m 0 25 m 0 25 a 6.25 6.25 0 0 0 12.5 0 6.25 6.25 0 0 0 -12.5 0" transform="rotate(0) translate(0 141.4213562373095) rotate(-135)" opacity="0.5"></path><path d="m -12.5 0 a 12.5 12.5 0 0 1 25 0 l 0 200 a 12.5 12.5 0 0 1 -25 0 l 0 -200 z m 6.25 -25 m 0 25 a 6.25 6.25 0 0 0 12.5 0 6.25 6.25 0 0 0 -12.5 0 m 0 25 m 0 25 a 6.25 6.25 0 0 0 12.5 0 6.25 6.25 0 0 0 -12.5 0 m 0 25 m 0 25 a 6.25 6.25 0 0 0 12.5 0 6.25 6.25 0 0 0 -12.5 0 m 0 25 m 0 25 a 6.25 6.25 0 0 0 12.5 0 6.25 6.25 0 0 0 -12.5 0 m 0 25 m 0 25 a 6.25 6.25 0 0 0 12.5 0 6.25 6.25 0 0 0 -12.5 0" transform="rotate(-90) translate(0 141.4213562373095) rotate(-135)" opacity="0.5"></path><path d="m -12.5 0 a 12.5 12.5 0 0 1 25 0 l 0 200 a 12.5 12.5 0 0 1 -25 0 l 0 -200 z m 6.25 -25 m 0 25 a 6.25 6.25 0 0 0 12.5 0 6.25 6.25 0 0 0 -12.5 0 m 0 25 m 0 25 a 6.25 6.25 0 0 0 12.5 0 6.25 6.25 0 0 0 -12.5 0 m 0 25 m 0 25 a 6.25 6.25 0 0 0 12.5 0 6.25 6.25 0 0 0 -12.5 0 m 0 25 m 0 25 a 6.25 6.25 0 0 0 12.5 0 6.25 6.25 0 0 0 -12.5 0 m 0 25 m 0 25 a 6.25 6.25 0 0 0 12.5 0 6.25 6.25 0 0 0 -12.5 0" transform="rotate(-180) translate(0 141.4213562373095) rotate(-135)" opacity="0.5"></path><path d="m -12.5 0 a 12.5 12.5 0 0 1 25 0 l 0 200 a 12.5 12.5 0 0 1 -25 0 l 0 -200 z m 6.25 -25 m 0 25 a 6.25 6.25 0 0 0 12.5 0 6.25 6.25 0 0 0 -12.5 0 m 0 25 m 0 25 a 6.25 6.25 0 0 0 12.5 0 6.25 6.25 0 0 0 -12.5 0 m 0 25 m 0 25 a 6.25 6.25 0 0 0 12.5 0 6.25 6.25 0 0 0 -12.5 0 m 0 25 m 0 25 a 6.25 6.25 0 0 0 12.5 0 6.25 6.25 0 0 0 -12.5 0 m 0 25 m 0 25 a 6.25 6.25 0 0 0 12.5 0 6.25 6.25 0 0 0 -12.5 0" transform="rotate(-270) translate(0 141.4213562373095) rotate(-135)" opacity="0.5"></path></g><g fill="#f20"><path d="m -12.5 0 a 12.5 12.5 0 0 1 25 0 l 0 250 a 12.5 12.5 0 0 1 -25 0 l 0 -250 z m 6.25 -25 m 0 25 a 6.25 6.25 0 0 0 12.5 0 6.25 6.25 0 0 0 -12.5 0 m 0 25 m 0 25 a 6.25 6.25 0 0 0 12.5 0 6.25 6.25 0 0 0 -12.5 0 m 0 25 m 0 25 a 6.25 6.25 0 0 0 12.5 0 6.25 6.25 0 0 0 -12.5 0 m 0 25 m 0 25 a 6.25 6.25 0 0 0 12.5 0 6.25 6.25 0 0 0 -12.5 0 m 0 25 m 0 25 a 6.25 6.25 0 0 0 12.5 0 6.25 6.25 0 0 0 -12.5 0 m 0 25 m 0 25 a 6.25 6.25 0 0 0 12.5 0 6.25 6.25 0 0 0 -12.5 0" transform="rotate(0) translate(0 141.4213562373095) rotate(-171.86989764584402)" opacity="0.5"></path></g></g></svg>