<?xml version="1.0" encoding="UTF-8"?><svg xmlns="http://www.w3.org/2000/svg" width="200" height="200"><g transform="translate(100 100) scale(0.5 -0.5) rotate(0)" stroke-width="1px" stroke-linecap="round" stroke="#000"><g fill="#08f"><path d="m -15 0 a 15 15 0 0 1 30 0 l 0 240 a 15 15 0 0 1 -30 0 l 0 -240 z m 7.5 -30 m 0 30 a 7.5 7.5 0 0 0 15 0 7.5 7.5 0 0 0 -15 0 m 0 30 m 0 30 m 0 30 m 0 30 m 0 30 m 0 30 m 0 30 m 0 30 a 7.5 7.5 0 0 0 15 0 7.5 7.5 0 0 0 -15 0" transform="rotate(0) translate(0 138.5640646055102) rotate(150)" opacity="0.5"></path><path d="m -15 0 a 15 15 0 0 1 30 0 l 0 240 a 15 15 0 0 1 -30 0 l 0 -240 z m 7.5 -30 m 0 30 a 7.5 7.5 0 0 0 15 0 7.5 7.5 0 0 0 -15 0 m 0 30 m 0 30 m 0 30 m 0 30 m 0 30 m 0 30 m 0 30 m 0 30 a 7.5 7.5 0 0 0 15 0 7.5 7.5 0 0 0 -15 0" transform="rotate(-120) translate(0 138.5640646055102) rotate(150)" opacity="0.5"></path><path d="m -15 0 a 15 15 0 0 1 30 0 l 0 240 a 15 15 0 0 1 -30 0 l 0 -240 z m 7.5 -30 m 0 30 a 7.5 7.5 0 0 0 15 0 7.5 7.5 0 0 0 -15 0 m 0 30 m 0 30 m 0 30 m 0 30 m 0 30 m 0 30 m 0 30 m 0 30 a 7.5 7.5 0 0 0 15 0 7.5 7.5 0 0 0 -15 0" transform="rotate(-240) translate(0 138.5640646055102) rotate(150)" opacity="0.5"></path></g></g></svg>