<?xml version="1.0" encoding="UTF-8"?><svg xmlns="http://www.w3.org/2000/svg" width="300" height="300"><g transform="translate(150 150) scale(0.7 -0.7) rotate(0)" stroke-width="1px" stroke-linecap="round" stroke="#000"><g fill="#08f"><path d="m -8 0 a 8 8 0 0 1 16 0 l 0 144 a 8 8 0 0 1 -16 0 l 0 -144 z m 4 -16 m 0 16 a 4 4 0 0 0 8 0 4 4 0 0 0 -8 0 m 0 16 a 4 4 0 0 0 8 0 4 4 0 0 0 -8 0 m 0 16 a 4 4 0 0 0 8 0 4 4 0 0 0 -8 0 m 0 16 a 4 4 0 0 0 8 0 4 4 0 0 0 -8 0 m 0 16 a 4 4 0 0 0 8 0 4 4 0 0 0 -8 0 m 0 16 a 4 4 0 0 0 8 0 4 4 0 0 0 -8 0 m 0 16 a 4 4 0 0 0 8 0 4 4 0 0 0 -8 0 m 0 16 a 4 4 0 0 0 8 0 4 4 0 0 0 -8 0 m 0 16 a 4 4 0 0 0 8 0 4 4 0 0 0 -8 0 m 0 16 a 4 4 0 0 0 8 0 4 4 0 0 0 -8 0" transform="rotate(-288) translate(0 163.32495520359166) rotate(36) translate(-64,0) rotate(-162)" opacity="0.5"></path><path d="m -8 0 a 8 8 0 0 1 16 0 l 0 144 a 8 8 0 0 1 -16 0 l 0 -144 z m 4 -16 m 0 16 a 4 4 0 0 0 8 0 4 4 0 0 0 -8 0 m 0 16 a 4 4 0 0 0 8 0 4 4 0 0 0 -8 0 m 0 16 a 4 4 0 0 0 8 0 4 4 0 0 0 -8 0 m 0 16 a 4 4 0 0 0 8 0 4 4 0 0 0 -8 0 m 0 16 a 4 4 0 0 0 8 0 4 4 0 0 0 -8 0 m 0 16 a 4 4 0 0 0 8 0 4 4 0 0 0 -8 0 m 0 16 a 4 4 0 0 0 8 0 4 4 0 0 0 -8 0 m 0 16 a 4 4 0 0 0 8 0 4 4 0 0 0 -8 0 m 0 16 a 4 4 0 0 0 8 0 4 4 0 0 0 -8 0 m 0 16 a 4 4 0 0 0 8 0 4 4 0 0 0 -8 0" transform="rotate(-288) translate(0 163.32495520359166) rotate(-36) translate(64,0) rotate(162)" opacity="0.5"></path></g><g fill="#0f4"><path d="m -8 0 a 8 8 0 0 1 16 0 l 0 176 a 8 8 0 0 1 -16 0 l 0 -176 z m 4 -16 m 0 16 a 4 4 0 0 0 8 0 4 4 0 0 0 -8 0 m 0 16 a 4 4 0 0 0 8 0 4 4 0 0 0 -8 0 m 0 16 a 4 4 0 0 0 8 0 4 4 0 0 0 -8 0 m 0 16 a 4 4 0 0 0 8 0 4 4 0 0 0 -8 0 m 0 16 a 4 4 0 0 0 8 0 4 4 0 0 0 -8 0 m 0 16 a 4 4 0 0 0 8 0 4 4 0 0 0 -8 0 m 0 16 a 4 4 0 0 0 8 0 4 4 0 0 0 -8 0 m 0 16 a 4 4 0 0 0 8 0 4 4 0 0 0 -8 0 m 0 16 a 4 4 0 0 0 8 0 4 4 0 0 0 -8 0 m 0 16 a 4 4 0 0 0 8 0 4 4 0 0 0 -8 0 m 0 16 a 4 4 0 0 0 8 0 4 4 0 0 0 -8 0 m 0 16 a 4 4 0 0 0 8 0 4 4 0 0 0 -8 0" transform="rotate(-288) translate(0 163.32495520359166) rotate(36) translate(-64,0) rotate(-162) translate(0, 144) rotate(-64.4)" opacity="0.5"></path><path d="m -8 0 a 8 8 0 0 1 16 0 l 0 176 a 8 8 0 0 1 -16 0 l 0 -176 z m 4 -16 m 0 16 a 4 4 0 0 0 8 0 4 4 0 0 0 -8 0 m 0 16 a 4 4 0 0 0 8 0 4 4 0 0 0 -8 0 m 0 16 a 4 4 0 0 0 8 0 4 4 0 0 0 -8 0 m 0 16 a 4 4 0 0 0 8 0 4 4 0 0 0 -8 0 m 0 16 a 4 4 0 0 0 8 0 4 4 0 0 0 -8 0 m 0 16 a 4 4 0 0 0 8 0 4 4 0 0 0 -8 0 m 0 16 a 4 4 0 0 0 8 0 4 4 0 0 0 -8 0 m 0 16 a 4 4 0 0 0 8 0 4 4 0 0 0 -8 0 m 0 16 a 4 4 0 0 0 8 0 4 4 0 0 0 -8 0 m 0 16 a 4 4 0 0 0 8 0 4 4 0 0 0 -8 0 m 0 16 a 4 4 0 0 0 8 0 4 4 0 0 0 -8 0 m 0 16 a 4 4 0 0 0 8 0 4 4 0 0 0 -8 0" transform="rotate(-288) translate(0 163.32495520359166) rotate(-36) translate(64,0) rotate(162) translate(0, 144) rotate(+64.4)" opacity="0.5"></path></g><g fill="#f20"><path d="m -8 0 a 8 8 0 0 1 16 0 l 0 192 a 8 8 0 0 1 -16 0 l 0 -192 z m 4 -16 m 0 16 a 4 4 0 0 0 8 0 4 4 0 0 0 -8 0 m 0 16 a 4 4 0 0 0 8 0 4 4 0 0 0 -8 0 m 0 16 a 4 4 0 0 0 8 0 4 4 0 0 0 -8 0 m 0 16 a 4 4 0 0 0 8 0 4 4 0 0 0 -8 0 m 0 16 a 4 4 0 0 0 8 0 4 4 0 0 0 -8 0 m 0 16 a 4 4 0 0 0 8 0 4 4 0 0 0 -8 0 m 0 16 a 4 4 0 0 0 8 0 4 4 0 0 0 -8 0 m 0 16 a 4 4 0 0 0 8 0 4 4 0 0 0 -8 0 m 0 16 a 4 4 0 0 0 8 0 4 4 0 0 0 -8 0 m 0 16 a 4 4 0 0 0 8 0 4 4 0 0 0 -8 0 m 0 16 a 4 4 0 0 0 8 0 4 4 0 0 0 -8 0 m 0 16 a 4 4 0 0 0 8 0 4 4 0 0 0 -8 0 m 0 16 a 4 4 0 0 0 8 0 4 4 0 0 0 -8 0" transform="rotate(0) translate(0 163.32495520359166) rotate(-126)" opacity="0.5"></path><path d="m -8 0 a 8 8 0 0 1 16 0 l 0 192 a 8 8 0 0 1 -16 0 l 0 -192 z m 4 -16 m 0 16 a 4 4 0 0 0 8 0 4 4 0 0 0 -8 0 m 0 16 a 4 4 0 0 0 8 0 4 4 0 0 0 -8 0 m 0 16 a 4 4 0 0 0 8 0 4 4 0 0 0 -8 0 m 0 16 a 4 4 0 0 0 8 0 4 4 0 0 0 -8 0 m 0 16 a 4 4 0 0 0 8 0 4 4 0 0 0 -8 0 m 0 16 a 4 4 0 0 0 8 0 4 4 0 0 0 -8 0 m 0 16 a 4 4 0 0 0 8 0 4 4 0 0 0 -8 0 m 0 16 a 4 4 0 0 0 8 0 4 4 0 0 0 -8 0 m 0 16 a 4 4 0 0 0 8 0 4 4 0 0 0 -8 0 m 0 16 a 4 4 0 0 0 8 0 4 4 0 0 0 -8 0 m 0 16 a 4 4 0 0 0 8 0 4 4 0 0 0 -8 0 m 0 16 a 4 4 0 0 0 8 0 4 4 0 0 0 -8 0 m 0 16 a 4 4 0 0 0 8 0 4 4 0 0 0 -8 0" transform="rotate(-72) translate(0 163.32495520359166) rotate(-126)" opacity="0.5"></path><path d="m -8 0 a 8 8 0 0 1 16 0 l 0 192 a 8 8 0 0 1 -16 0 l 0 -192 z m 4 -16 m 0 16 a 4 4 0 0 0 8 0 4 4 0 0 0 -8 0 m 0 16 a 4 4 0 0 0 8 0 4 4 0 0 0 -8 0 m 0 16 a 4 4 0 0 0 8 0 4 4 0 0 0 -8 0 m 0 16 a 4 4 0 0 0 8 0 4 4 0 0 0 -8 0 m 0 16 a 4 4 0 0 0 8 0 4 4 0 0 0 -8 0 m 0 16 a 4 4 0 0 0 8 0 4 4 0 0 0 -8 0 m 0 16 a 4 4 0 0 0 8 0 4 4 0 0 0 -8 0 m 0 16 a 4 4 0 0 0 8 0 4 4 0 0 0 -8 0 m 0 16 a 4 4 0 0 0 8 0 4 4 0 0 0 -8 0 m 0 16 a 4 4 0 0 0 8 0 4 4 0 0 0 -8 0 m 0 16 a 4 4 0 0 0 8 0 4 4 0 0 0 -8 0 m 0 16 a 4 4 0 0 0 8 0 4 4 0 0 0 -8 0 m 0 16 a 4 4 0 0 0 8 0 4 4 0 0 0 -8 0" transform="rotate(-144) translate(0 163.32495520359166) rotate(-126)" opacity="0.5"></path><path d="m -8 0 a 8 8 0 0 1 16 0 l 0 192 a 8 8 0 0 1 -16 0 l 0 -192 z m 4 -16 m 0 16 a 4 4 0 0 0 8 0 4 4 0 0 0 -8 0 m 0 16 a 4 4 0 0 0 8 0 4 4 0 0 0 -8 0 m 0 16 a 4 4 0 0 0 8 0 4 4 0 0 0 -8 0 m 0 16 a 4 4 0 0 0 8 0 4 4 0 0 0 -8 0 m 0 16 a 4 4 0 0 0 8 0 4 4 0 0 0 -8 0 m 0 16 a 4 4 0 0 0 8 0 4 4 0 0 0 -8 0 m 0 16 a 4 4 0 0 0 8 0 4 4 0 0 0 -8 0 m 0 16 a 4 4 0 0 0 8 0 4 4 0 0 0 -8 0 m 0 16 a 4 4 0 0 0 8 0 4 4 0 0 0 -8 0 m 0 16 a 4 4 0 0 0 8 0 4 4 0 0 0 -8 0 m 0 16 a 4 4 0 0 0 8 0 4 4 0 0 0 -8 0 m 0 16 a 4 4 0 0 0 8 0 4 4 0 0 0 -8 0 m 0 16 a 4 4 0 0 0 8 0 4 4 0 0 0 -8 0" transform="rotate(-216) translate(0 163.32495520359166) rotate(-126)" opacity="0.5"></path><path d="m -8 0 a 8 8 0 0 1 16 0 l 0 192 a 8 8 0 0 1 -16 0 l 0 -192 z m 4 -16 m 0 16 a 4 4 0 0 0 8 0 4 4 0 0 0 -8 0 m 0 16 a 4 4 0 0 0 8 0 4 4 0 0 0 -8 0 m 0 16 a 4 4 0 0 0 8 0 4 4 0 0 0 -8 0 m 0 16 a 4 4 0 0 0 8 0 4 4 0 0 0 -8 0 m 0 16 a 4 4 0 0 0 8 0 4 4 0 0 0 -8 0 m 0 16 a 4 4 0 0 0 8 0 4 4 0 0 0 -8 0 m 0 16 a 4 4 0 0 0 8 0 4 4 0 0 0 -8 0 m 0 16 a 4 4 0 0 0 8 0 4 4 0 0 0 -8 0 m 0 16 a 4 4 0 0 0 8 0 4 4 0 0 0 -8 0 m 0 16 a 4 4 0 0 0 8 0 4 4 0 0 0 -8 0 m 0 16 a 4 4 0 0 0 8 0 4 4 0 0 0 -8 0 m 0 16 a 4 4 0 0 0 8 0 4 4 0 0 0 -8 0 m 0 16 a 4 4 0 0 0 8 0 4 4 0 0 0 -8 0" transform="rotate(-288) translate(0 163.32495520359166) rotate(-126)" opacity="0.5"></path></g></g></svg>