<?xml version="1.0" encoding="UTF-8"?><svg xmlns="http://www.w3.org/2000/svg" width="300" height="300"><g transform="translate(150 150) scale(0.7 -0.7) rotate(0)" stroke-width="1px" stroke-linecap="round" stroke="#000"><g fill="#08f"><path d="m -15 0 a 15 15 0 0 1 30 0 l 0 120 a 15 15 0 0 1 -30 0 l 0 -120 z m 7.5 -30 m 0 30 a 7.5 7.5 0 0 0 15 0 7.5 7.5 0 0 0 -15 0 m 0 30 a 7.5 7.5 0 0 0 15 0 7.5 7.5 0 0 0 -15 0 m 0 30 a 7.5 7.5 0 0 0 15 0 7.5 7.5 0 0 0 -15 0 m 0 30 a 7.5 7.5 0 0 0 15 0 7.5 7.5 0 0 0 -15 0 m 0 30 a 7.5 7.5 0 0 0 15 0 7.5 7.5 0 0 0 -15 0" transform="rotate(0) translate(0 156.78755578516518) rotate(-112.5)" opacity="0.5"></path><path d="m -15 0 a 15 15 0 0 1 30 0 l 0 120 a 15 15 0 0 1 -30 0 l 0 -120 z m 7.5 -30 m 0 30 a 7.5 7.5 0 0 0 15 0 7.5 7.5 0 0 0 -15 0 m 0 30 a 7.5 7.5 0 0 0 15 0 7.5 7.5 0 0 0 -15 0 m 0 30 a 7.5 7.5 0 0 0 15 0 7.5 7.5 0 0 0 -15 0 m 0 30 a 7.5 7.5 0 0 0 15 0 7.5 7.5 0 0 0 -15 0 m 0 30 a 7.5 7.5 0 0 0 15 0 7.5 7.5 0 0 0 -15 0" transform="rotate(0) translate(0 156.78755578516518) rotate(-202.5)" opacity="0.5"></path><path d="m -15 0 a 15 15 0 0 1 30 0 l 0 120 a 15 15 0 0 1 -30 0 l 0 -120 z m 7.5 -30 m 0 30 a 7.5 7.5 0 0 0 15 0 7.5 7.5 0 0 0 -15 0 m 0 30 a 7.5 7.5 0 0 0 15 0 7.5 7.5 0 0 0 -15 0 m 0 30 a 7.5 7.5 0 0 0 15 0 7.5 7.5 0 0 0 -15 0 m 0 30 a 7.5 7.5 0 0 0 15 0 7.5 7.5 0 0 0 -15 0 m 0 30 a 7.5 7.5 0 0 0 15 0 7.5 7.5 0 0 0 -15 0" transform="rotate(-45) translate(0 156.78755578516518) rotate(-112.5)" opacity="0.5"></path><path d="m -15 0 a 15 15 0 0 1 30 0 l 0 120 a 15 15 0 0 1 -30 0 l 0 -120 z m 7.5 -30 m 0 30 a 7.5 7.5 0 0 0 15 0 7.5 7.5 0 0 0 -15 0 m 0 30 a 7.5 7.5 0 0 0 15 0 7.5 7.5 0 0 0 -15 0 m 0 30 a 7.5 7.5 0 0 0 15 0 7.5 7.5 0 0 0 -15 0 m 0 30 a 7.5 7.5 0 0 0 15 0 7.5 7.5 0 0 0 -15 0 m 0 30 a 7.5 7.5 0 0 0 15 0 7.5 7.5 0 0 0 -15 0" transform="rotate(-45) translate(0 156.78755578516518) rotate(-157.5)" opacity="0.5"></path><path d="m -15 0 a 15 15 0 0 1 30 0 l 0 120 a 15 15 0 0 1 -30 0 l 0 -120 z m 7.5 -30 m 0 30 a 7.5 7.5 0 0 0 15 0 7.5 7.5 0 0 0 -15 0 m 0 30 a 7.5 7.5 0 0 0 15 0 7.5 7.5 0 0 0 -15 0 m 0 30 a 7.5 7.5 0 0 0 15 0 7.5 7.5 0 0 0 -15 0 m 0 30 a 7.5 7.5 0 0 0 15 0 7.5 7.5 0 0 0 -15 0 m 0 30 a 7.5 7.5 0 0 0 15 0 7.5 7.5 0 0 0 -15 0" transform="rotate(-90) translate(0 156.78755578516518) rotate(-112.5)" opacity="0.5"></path><path d="m -15 0 a 15 15 0 0 1 30 0 l 0 120 a 15 15 0 0 1 -30 0 l 0 -120 z m 7.5 -30 m 0 30 a 7.5 7.5 0 0 0 15 0 7.5 7.5 0 0 0 -15 0 m 0 30 a 7.5 7.5 0 0 0 15 0 7.5 7.5 0 0 0 -15 0 m 0 30 a 7.5 7.5 0 0 0 15 0 7.5 7.5 0 0 0 -15 0 m 0 30 a 7.5 7.5 0 0 0 15 0 7.5 7.5 0 0 0 -15 0 m 0 30 a 7.5 7.5 0 0 0 15 0 7.5 7.5 0 0 0 -15 0" transform="rotate(-135) translate(0 156.78755578516518) rotate(-112.5)" opacity="0.5"></path><path d="m -15 0 a 15 15 0 0 1 30 0 l 0 120 a 15 15 0 0 1 -30 0 l 0 -120 z m 7.5 -30 m 0 30 a 7.5 7.5 0 0 0 15 0 7.5 7.5 0 0 0 -15 0 m 0 30 a 7.5 7.5 0 0 0 15 0 7.5 7.5 0 0 0 -15 0 m 0 30 a 7.5 7.5 0 0 0 15 0 7.5 7.5 0 0 0 -15 0 m 0 30 a 7.5 7.5 0 0 0 15 0 7.5 7.5 0 0 0 -15 0 m 0 30 a 7.5 7.5 0 0 0 15 0 7.5 7.5 0 0 0 -15 0" transform="rotate(-135) translate(0 156.78755578516518) rotate(-202.5)" opacity="0.5"></path><path d="m -15 0 a 15 15 0 0 1 30 0 l 0 120 a 15 15 0 0 1 -30 0 l 0 -120 z m 7.5 -30 m 0 30 a 7.5 7.5 0 0 0 15 0 7.5 7.5 0 0 0 -15 0 m 0 30 a 7.5 7.5 0 0 0 15 0 7.5 7.5 0 0 0 -15 0 m 0 30 a 7.5 7.5 0 0 0 15 0 7.5 7.5 0 0 0 -15 0 m 0 30 a 7.5 7.5 0 0 0 15 0 7.5 7.5 0 0 0 -15 0 m 0 30 a 7.5 7.5 0 0 0 15 0 7.5 7.5 0 0 0 -15 0" transform="rotate(-180) translate(0 156.78755578516518) rotate(-112.5)" opacity="0.5"></path><path d="m -15 0 a 15 15 0 0 1 30 0 l 0 120 a 15 15 0 0 1 -30 0 l 0 -120 z m 7.5 -30 m 0 30 a 7.5 7.5 0 0 0 15 0 7.5 7.5 0 0 0 -15 0 m 0 30 a 7.5 7.5 0 0 0 15 0 7.5 7.5 0 0 0 -15 0 m 0 30 a 7.5 7.5 0 0 0 15 0 7.5 7.5 0 0 0 -15 0 m 0 30 a 7.5 7.5 0 0 0 15 0 7.5 7.5 0 0 0 -15 0 m 0 30 a 7.5 7.5 0 0 0 15 0 7.5 7.5 0 0 0 -15 0" transform="rotate(-225) translate(0 156.78755578516518) rotate(-112.5)" opacity="0.5"></path><path d="m -15 0 a 15 15 0 0 1 30 0 l 0 120 a 15 15 0 0 1 -30 0 l 0 -120 z m 7.5 -30 m 0 30 a 7.5 7.5 0 0 0 15 0 7.5 7.5 0 0 0 -15 0 m 0 30 a 7.5 7.5 0 0 0 15 0 7.5 7.5 0 0 0 -15 0 m 0 30 a 7.5 7.5 0 0 0 15 0 7.5 7.5 0 0 0 -15 0 m 0 30 a 7.5 7.5 0 0 0 15 0 7.5 7.5 0 0 0 -15 0 m 0 30 a 7.5 7.5 0 0 0 15 0 7.5 7.5 0 0 0 -15 0" transform="rotate(-270) translate(0 156.78755578516518) rotate(-112.5)" opacity="0.5"></path><path d="m -15 0 a 15 15 0 0 1 30 0 l 0 120 a 15 15 0 0 1 -30 0 l 0 -120 z m 7.5 -30 m 0 30 a 7.5 7.5 0 0 0 15 0 7.5 7.5 0 0 0 -15 0 m 0 30 a 7.5 7.5 0 0 0 15 0 7.5 7.5 0 0 0 -15 0 m 0 30 a 7.5 7.5 0 0 0 15 0 7.5 7.5 0 0 0 -15 0 m 0 30 a 7.5 7.5 0 0 0 15 0 7.5 7.5 0 0 0 -15 0 m 0 30 a 7.5 7.5 0 0 0 15 0 7.5 7.5 0 0 0 -15 0" transform="rotate(-270) translate(0 156.78755578516518) rotate(-157.5)" opacity="0.5"></path><path d="m -15 0 a 15 15 0 0 1 30 0 l 0 120 a 15 15 0 0 1 -30 0 l 0 -120 z m 7.5 -30 m 0 30 a 7.5 7.5 0 0 0 15 0 7.5 7.5 0 0 0 -15 0 m 0 30 a 7.5 7.5 0 0 0 15 0 7.5 7.5 0 0 0 -15 0 m 0 30 a 7.5 7.5 0 0 0 15 0 7.5 7.5 0 0 0 -15 0 m 0 30 a 7.5 7.5 0 0 0 15 0 7.5 7.5 0 0 0 -15 0 m 0 30 a 7.5 7.5 0 0 0 15 0 7.5 7.5 0 0 0 -15 0" transform="rotate(-315) translate(0 156.78755578516518) rotate(-112.5)" opacity="0.5"></path></g><g fill="#0f4"><path d="m -15 0 a 15 15 0 0 1 30 0 l 0 150 a 15 15 0 0 1 -30 0 l 0 -150 z m 7.5 -30 m 0 30 a 7.5 7.5 0 0 0 15 0 7.5 7.5 0 0 0 -15 0 m 0 30 a 7.5 7.5 0 0 0 15 0 7.5 7.5 0 0 0 -15 0 m 0 30 a 7.5 7.5 0 0 0 15 0 7.5 7.5 0 0 0 -15 0 m 0 30 a 7.5 7.5 0 0 0 15 0 7.5 7.5 0 0 0 -15 0 m 0 30 a 7.5 7.5 0 0 0 15 0 7.5 7.5 0 0 0 -15 0 m 0 30 a 7.5 7.5 0 0 0 15 0 7.5 7.5 0 0 0 -15 0" transform="rotate(0) translate(0 156.78755578516518) rotate(-149.36989764584402)" opacity="0.5"></path><path d="m -15 0 a 15 15 0 0 1 30 0 l 0 150 a 15 15 0 0 1 -30 0 l 0 -150 z m 7.5 -30 m 0 30 a 7.5 7.5 0 0 0 15 0 7.5 7.5 0 0 0 -15 0 m 0 30 a 7.5 7.5 0 0 0 15 0 7.5 7.5 0 0 0 -15 0 m 0 30 a 7.5 7.5 0 0 0 15 0 7.5 7.5 0 0 0 -15 0 m 0 30 a 7.5 7.5 0 0 0 15 0 7.5 7.5 0 0 0 -15 0 m 0 30 a 7.5 7.5 0 0 0 15 0 7.5 7.5 0 0 0 -15 0 m 0 30 a 7.5 7.5 0 0 0 15 0 7.5 7.5 0 0 0 -15 0" transform="rotate(-135) translate(0 156.78755578516518) rotate(-202.5) translate(0 120) rotate(143.13010235415598)" opacity="0.5"></path><path d="m -15 0 a 15 15 0 0 1 30 0 l 0 150 a 15 15 0 0 1 -30 0 l 0 -150 z m 7.5 -30 m 0 30 a 7.5 7.5 0 0 0 15 0 7.5 7.5 0 0 0 -15 0 m 0 30 a 7.5 7.5 0 0 0 15 0 7.5 7.5 0 0 0 -15 0 m 0 30 a 7.5 7.5 0 0 0 15 0 7.5 7.5 0 0 0 -15 0 m 0 30 a 7.5 7.5 0 0 0 15 0 7.5 7.5 0 0 0 -15 0 m 0 30 a 7.5 7.5 0 0 0 15 0 7.5 7.5 0 0 0 -15 0 m 0 30 a 7.5 7.5 0 0 0 15 0 7.5 7.5 0 0 0 -15 0" transform="rotate(-270) translate(0 156.78755578516518) rotate(-157.5) translate(0 120) rotate(216.86989764584402)" opacity="0.5"></path></g><g fill="#f20"><path d="m -15 0 a 15 15 0 0 1 30 0 l 0 180 a 15 15 0 0 1 -30 0 l 0 -180 z m 7.5 -30 m 0 30 a 7.5 7.5 0 0 0 15 0 7.5 7.5 0 0 0 -15 0 m 0 30 a 7.5 7.5 0 0 0 15 0 7.5 7.5 0 0 0 -15 0 m 0 30 a 7.5 7.5 0 0 0 15 0 7.5 7.5 0 0 0 -15 0 m 0 30 a 7.5 7.5 0 0 0 15 0 7.5 7.5 0 0 0 -15 0 m 0 30 a 7.5 7.5 0 0 0 15 0 7.5 7.5 0 0 0 -15 0 m 0 30 a 7.5 7.5 0 0 0 15 0 7.5 7.5 0 0 0 -15 0 m 0 30 a 7.5 7.5 0 0 0 15 0 7.5 7.5 0 0 0 -15 0" transform="rotate(-135) translate(0 156.78755578516518) rotate(-202.5) translate(0 120) rotate(115.52877936550931)" opacity="0.5"></path><path d="m -15 0 a 15 15 0 0 1 30 0 l 0 180 a 15 15 0 0 1 -30 0 l 0 -180 z m 7.5 -30 m 0 30 a 7.5 7.5 0 0 0 15 0 7.5 7.5 0 0 0 -15 0 m 0 30 a 7.5 7.5 0 0 0 15 0 7.5 7.5 0 0 0 -15 0 m 0 30 a 7.5 7.5 0 0 0 15 0 7.5 7.5 0 0 0 -15 0 m 0 30 a 7.5 7.5 0 0 0 15 0 7.5 7.5 0 0 0 -15 0 m 0 30 a 7.5 7.5 0 0 0 15 0 7.5 7.5 0 0 0 -15 0 m 0 30 a 7.5 7.5 0 0 0 15 0 7.5 7.5 0 0 0 -15 0 m 0 30 a 7.5 7.5 0 0 0 15 0 7.5 7.5 0 0 0 -15 0" transform="rotate(-270) translate(0 156.78755578516518) rotate(-157.5) translate(0 120) rotate(244.4712206344907)" opacity="0.5"></path></g></g></svg>