<?xml version="1.0" encoding="UTF-8"?><svg xmlns="http://www.w3.org/2000/svg" width="300" height="300"><g transform="translate(150 150) scale(0.7 -0.7) rotate(0)" stroke-width="1px" stroke-linecap="round" stroke="#000"><g fill="#08f"><path d="m -9 0 a 9 9 0 0 1 18 0 l 0 162 a 9 9 0 0 1 -18 0 l 0 -162 z m 4.5 -18 m 0 18 a 4.5 4.5 0 0 0 9 0 4.5 4.5 0 0 0 -9 0 m 0 18 a 4.5 4.5 0 0 0 9 0 4.5 4.5 0 0 0 -9 0 m 0 18 a 4.5 4.5 0 0 0 9 0 4.5 4.5 0 0 0 -9 0 m 0 18 a 4.5 4.5 0 0 0 9 0 4.5 4.5 0 0 0 -9 0 m 0 18 a 4.5 4.5 0 0 0 9 0 4.5 4.5 0 0 0 -9 0 m 0 18 a 4.5 4.5 0 0 0 9 0 4.5 4.5 0 0 0 -9 0 m 0 18 a 4.5 4.5 0 0 0 9 0 4.5 4.5 0 0 0 -9 0 m 0 18 a 4.5 4.5 0 0 0 9 0 4.5 4.5 0 0 0 -9 0 m 0 18 a 4.5 4.5 0 0 0 9 0 4.5 4.5 0 0 0 -9 0 m 0 18 a 4.5 4.5 0 0 0 9 0 4.5 4.5 0 0 0 -9 0" transform="rotate(-288) translate(0 183.74057460404063) rotate(-162)" opacity="0.5"></path></g><g fill="#0d2"><path d="m -9 0 a 9 9 0 0 1 18 0 l 0 198 a 9 9 0 0 1 -18 0 l 0 -198 z m 4.5 -18 m 0 18 a 4.5 4.5 0 0 0 9 0 4.5 4.5 0 0 0 -9 0 m 0 18 a 4.5 4.5 0 0 0 9 0 4.5 4.5 0 0 0 -9 0 m 0 18 a 4.5 4.5 0 0 0 9 0 4.5 4.5 0 0 0 -9 0 m 0 18 a 4.5 4.5 0 0 0 9 0 4.5 4.5 0 0 0 -9 0 m 0 18 a 4.5 4.5 0 0 0 9 0 4.5 4.5 0 0 0 -9 0 m 0 18 a 4.5 4.5 0 0 0 9 0 4.5 4.5 0 0 0 -9 0 m 0 18 a 4.5 4.5 0 0 0 9 0 4.5 4.5 0 0 0 -9 0 m 0 18 a 4.5 4.5 0 0 0 9 0 4.5 4.5 0 0 0 -9 0 m 0 18 a 4.5 4.5 0 0 0 9 0 4.5 4.5 0 0 0 -9 0 m 0 18 a 4.5 4.5 0 0 0 9 0 4.5 4.5 0 0 0 -9 0 m 0 18 a 4.5 4.5 0 0 0 9 0 4.5 4.5 0 0 0 -9 0 m 0 18 a 4.5 4.5 0 0 0 9 0 4.5 4.5 0 0 0 -9 0" transform="rotate(-72) translate(0 183.74057460404063) rotate(-154.23695801379742)" opacity="0.5"></path><path d="m -9 0 a 9 9 0 0 1 18 0 l 0 198 a 9 9 0 0 1 -18 0 l 0 -198 z m 4.5 -18 m 0 18 a 4.5 4.5 0 0 0 9 0 4.5 4.5 0 0 0 -9 0 m 0 18 a 4.5 4.5 0 0 0 9 0 4.5 4.5 0 0 0 -9 0 m 0 18 a 4.5 4.5 0 0 0 9 0 4.5 4.5 0 0 0 -9 0 m 0 18 a 4.5 4.5 0 0 0 9 0 4.5 4.5 0 0 0 -9 0 m 0 18 a 4.5 4.5 0 0 0 9 0 4.5 4.5 0 0 0 -9 0 m 0 18 a 4.5 4.5 0 0 0 9 0 4.5 4.5 0 0 0 -9 0 m 0 18 a 4.5 4.5 0 0 0 9 0 4.5 4.5 0 0 0 -9 0 m 0 18 a 4.5 4.5 0 0 0 9 0 4.5 4.5 0 0 0 -9 0 m 0 18 a 4.5 4.5 0 0 0 9 0 4.5 4.5 0 0 0 -9 0 m 0 18 a 4.5 4.5 0 0 0 9 0 4.5 4.5 0 0 0 -9 0 m 0 18 a 4.5 4.5 0 0 0 9 0 4.5 4.5 0 0 0 -9 0 m 0 18 a 4.5 4.5 0 0 0 9 0 4.5 4.5 0 0 0 -9 0" transform="rotate(-288) translate(0 183.74057460404063) rotate(-162) translate(0,162) rotate(-43.76304198620259)" opacity="0.5"></path></g><g fill="#f20"><path d="m -9 0 a 9 9 0 0 1 18 0 l 0 216 a 9 9 0 0 1 -18 0 l 0 -216 z m 4.5 -18 m 0 18 a 4.5 4.5 0 0 0 9 0 4.5 4.5 0 0 0 -9 0 m 0 18 a 4.5 4.5 0 0 0 9 0 4.5 4.5 0 0 0 -9 0 m 0 18 a 4.5 4.5 0 0 0 9 0 4.5 4.5 0 0 0 -9 0 m 0 18 a 4.5 4.5 0 0 0 9 0 4.5 4.5 0 0 0 -9 0 m 0 18 a 4.5 4.5 0 0 0 9 0 4.5 4.5 0 0 0 -9 0 m 0 18 a 4.5 4.5 0 0 0 9 0 4.5 4.5 0 0 0 -9 0 m 0 18 a 4.5 4.5 0 0 0 9 0 4.5 4.5 0 0 0 -9 0 m 0 18 a 4.5 4.5 0 0 0 9 0 4.5 4.5 0 0 0 -9 0 m 0 18 a 4.5 4.5 0 0 0 9 0 4.5 4.5 0 0 0 -9 0 m 0 18 a 4.5 4.5 0 0 0 9 0 4.5 4.5 0 0 0 -9 0 m 0 18 a 4.5 4.5 0 0 0 9 0 4.5 4.5 0 0 0 -9 0 m 0 18 a 4.5 4.5 0 0 0 9 0 4.5 4.5 0 0 0 -9 0 m 0 18 a 4.5 4.5 0 0 0 9 0 4.5 4.5 0 0 0 -9 0" transform="rotate(0) translate(0 183.74057460404063) rotate(-126)" opacity="0.5"></path><path d="m -9 0 a 9 9 0 0 1 18 0 l 0 216 a 9 9 0 0 1 -18 0 l 0 -216 z m 4.5 -18 m 0 18 a 4.5 4.5 0 0 0 9 0 4.5 4.5 0 0 0 -9 0 m 0 18 a 4.5 4.5 0 0 0 9 0 4.5 4.5 0 0 0 -9 0 m 0 18 a 4.5 4.5 0 0 0 9 0 4.5 4.5 0 0 0 -9 0 m 0 18 a 4.5 4.5 0 0 0 9 0 4.5 4.5 0 0 0 -9 0 m 0 18 a 4.5 4.5 0 0 0 9 0 4.5 4.5 0 0 0 -9 0 m 0 18 a 4.5 4.5 0 0 0 9 0 4.5 4.5 0 0 0 -9 0 m 0 18 a 4.5 4.5 0 0 0 9 0 4.5 4.5 0 0 0 -9 0 m 0 18 a 4.5 4.5 0 0 0 9 0 4.5 4.5 0 0 0 -9 0 m 0 18 a 4.5 4.5 0 0 0 9 0 4.5 4.5 0 0 0 -9 0 m 0 18 a 4.5 4.5 0 0 0 9 0 4.5 4.5 0 0 0 -9 0 m 0 18 a 4.5 4.5 0 0 0 9 0 4.5 4.5 0 0 0 -9 0 m 0 18 a 4.5 4.5 0 0 0 9 0 4.5 4.5 0 0 0 -9 0 m 0 18 a 4.5 4.5 0 0 0 9 0 4.5 4.5 0 0 0 -9 0" transform="rotate(-72) translate(0 183.74057460404063) rotate(-126)" opacity="0.5"></path><path d="m -9 0 a 9 9 0 0 1 18 0 l 0 216 a 9 9 0 0 1 -18 0 l 0 -216 z m 4.5 -18 m 0 18 a 4.5 4.5 0 0 0 9 0 4.5 4.5 0 0 0 -9 0 m 0 18 a 4.5 4.5 0 0 0 9 0 4.5 4.5 0 0 0 -9 0 m 0 18 a 4.5 4.5 0 0 0 9 0 4.5 4.5 0 0 0 -9 0 m 0 18 a 4.5 4.5 0 0 0 9 0 4.5 4.5 0 0 0 -9 0 m 0 18 a 4.5 4.5 0 0 0 9 0 4.5 4.5 0 0 0 -9 0 m 0 18 a 4.5 4.5 0 0 0 9 0 4.5 4.5 0 0 0 -9 0 m 0 18 a 4.5 4.5 0 0 0 9 0 4.5 4.5 0 0 0 -9 0 m 0 18 a 4.5 4.5 0 0 0 9 0 4.5 4.5 0 0 0 -9 0 m 0 18 a 4.5 4.5 0 0 0 9 0 4.5 4.5 0 0 0 -9 0 m 0 18 a 4.5 4.5 0 0 0 9 0 4.5 4.5 0 0 0 -9 0 m 0 18 a 4.5 4.5 0 0 0 9 0 4.5 4.5 0 0 0 -9 0 m 0 18 a 4.5 4.5 0 0 0 9 0 4.5 4.5 0 0 0 -9 0 m 0 18 a 4.5 4.5 0 0 0 9 0 4.5 4.5 0 0 0 -9 0" transform="rotate(-144) translate(0 183.74057460404063) rotate(-126)" opacity="0.5"></path><path d="m -9 0 a 9 9 0 0 1 18 0 l 0 216 a 9 9 0 0 1 -18 0 l 0 -216 z m 4.5 -18 m 0 18 a 4.5 4.5 0 0 0 9 0 4.5 4.5 0 0 0 -9 0 m 0 18 a 4.5 4.5 0 0 0 9 0 4.5 4.5 0 0 0 -9 0 m 0 18 a 4.5 4.5 0 0 0 9 0 4.5 4.5 0 0 0 -9 0 m 0 18 a 4.5 4.5 0 0 0 9 0 4.5 4.5 0 0 0 -9 0 m 0 18 a 4.5 4.5 0 0 0 9 0 4.5 4.5 0 0 0 -9 0 m 0 18 a 4.5 4.5 0 0 0 9 0 4.5 4.5 0 0 0 -9 0 m 0 18 a 4.5 4.5 0 0 0 9 0 4.5 4.5 0 0 0 -9 0 m 0 18 a 4.5 4.5 0 0 0 9 0 4.5 4.5 0 0 0 -9 0 m 0 18 a 4.5 4.5 0 0 0 9 0 4.5 4.5 0 0 0 -9 0 m 0 18 a 4.5 4.5 0 0 0 9 0 4.5 4.5 0 0 0 -9 0 m 0 18 a 4.5 4.5 0 0 0 9 0 4.5 4.5 0 0 0 -9 0 m 0 18 a 4.5 4.5 0 0 0 9 0 4.5 4.5 0 0 0 -9 0 m 0 18 a 4.5 4.5 0 0 0 9 0 4.5 4.5 0 0 0 -9 0" transform="rotate(-216) translate(0 183.74057460404063) rotate(-126)" opacity="0.5"></path><path d="m -9 0 a 9 9 0 0 1 18 0 l 0 216 a 9 9 0 0 1 -18 0 l 0 -216 z m 4.5 -18 m 0 18 a 4.5 4.5 0 0 0 9 0 4.5 4.5 0 0 0 -9 0 m 0 18 a 4.5 4.5 0 0 0 9 0 4.5 4.5 0 0 0 -9 0 m 0 18 a 4.5 4.5 0 0 0 9 0 4.5 4.5 0 0 0 -9 0 m 0 18 a 4.5 4.5 0 0 0 9 0 4.5 4.5 0 0 0 -9 0 m 0 18 a 4.5 4.5 0 0 0 9 0 4.5 4.5 0 0 0 -9 0 m 0 18 a 4.5 4.5 0 0 0 9 0 4.5 4.5 0 0 0 -9 0 m 0 18 a 4.5 4.5 0 0 0 9 0 4.5 4.5 0 0 0 -9 0 m 0 18 a 4.5 4.5 0 0 0 9 0 4.5 4.5 0 0 0 -9 0 m 0 18 a 4.5 4.5 0 0 0 9 0 4.5 4.5 0 0 0 -9 0 m 0 18 a 4.5 4.5 0 0 0 9 0 4.5 4.5 0 0 0 -9 0 m 0 18 a 4.5 4.5 0 0 0 9 0 4.5 4.5 0 0 0 -9 0 m 0 18 a 4.5 4.5 0 0 0 9 0 4.5 4.5 0 0 0 -9 0 m 0 18 a 4.5 4.5 0 0 0 9 0 4.5 4.5 0 0 0 -9 0" transform="rotate(-288) translate(0 183.74057460404063) rotate(-126)" opacity="0.5"></path><path d="m -9 0 a 9 9 0 0 1 18 0 l 0 216 a 9 9 0 0 1 -18 0 l 0 -216 z m 4.5 -18 m 0 18 a 4.5 4.5 0 0 0 9 0 4.5 4.5 0 0 0 -9 0 m 0 18 a 4.5 4.5 0 0 0 9 0 4.5 4.5 0 0 0 -9 0 m 0 18 a 4.5 4.5 0 0 0 9 0 4.5 4.5 0 0 0 -9 0 m 0 18 a 4.5 4.5 0 0 0 9 0 4.5 4.5 0 0 0 -9 0 m 0 18 a 4.5 4.5 0 0 0 9 0 4.5 4.5 0 0 0 -9 0 m 0 18 a 4.5 4.5 0 0 0 9 0 4.5 4.5 0 0 0 -9 0 m 0 18 a 4.5 4.5 0 0 0 9 0 4.5 4.5 0 0 0 -9 0 m 0 18 a 4.5 4.5 0 0 0 9 0 4.5 4.5 0 0 0 -9 0 m 0 18 a 4.5 4.5 0 0 0 9 0 4.5 4.5 0 0 0 -9 0 m 0 18 a 4.5 4.5 0 0 0 9 0 4.5 4.5 0 0 0 -9 0 m 0 18 a 4.5 4.5 0 0 0 9 0 4.5 4.5 0 0 0 -9 0 m 0 18 a 4.5 4.5 0 0 0 9 0 4.5 4.5 0 0 0 -9 0 m 0 18 a 4.5 4.5 0 0 0 9 0 4.5 4.5 0 0 0 -9 0" transform="rotate(-288) translate(0 183.74057460404063) rotate(-162) translate(0,162) rotate(-72)" opacity="0.5"></path></g></g></svg>