<?xml version="1.0" encoding="UTF-8"?><svg xmlns="http://www.w3.org/2000/svg" width="300" height="300"><g transform="translate(150 150) scale(0.7 -0.7) rotate(0)" stroke-width="1px" stroke-linecap="round" stroke="#000"><g fill="#06e"><path d="m -10 0 a 10 10 0 0 1 20 0 l 0 120 a 10 10 0 0 1 -20 0 l 0 -120 z m 5 -20 m 0 20 a 5 5 0 0 0 10 0 5 5 0 0 0 -10 0 m 0 20 m 0 20 m 0 20 m 0 20 m 0 20 m 0 20 a 5 5 0 0 0 10 0 5 5 0 0 0 -10 0" transform="rotate(0) translate(0 175.42826400978524) rotate(110)" opacity="0.5"></path><path d="m -10 0 a 10 10 0 0 1 20 0 l 0 120 a 10 10 0 0 1 -20 0 l 0 -120 z m 5 -20 m 0 20 a 5 5 0 0 0 10 0 5 5 0 0 0 -10 0 m 0 20 m 0 20 m 0 20 m 0 20 m 0 20 m 0 20 a 5 5 0 0 0 10 0 5 5 0 0 0 -10 0" transform="rotate(-40) translate(0 175.42826400978524) rotate(110)" opacity="0.5"></path><path d="m -10 0 a 10 10 0 0 1 20 0 l 0 120 a 10 10 0 0 1 -20 0 l 0 -120 z m 5 -20 m 0 20 a 5 5 0 0 0 10 0 5 5 0 0 0 -10 0 m 0 20 m 0 20 m 0 20 m 0 20 m 0 20 m 0 20 a 5 5 0 0 0 10 0 5 5 0 0 0 -10 0" transform="rotate(-80) translate(0 175.42826400978524) rotate(110)" opacity="0.5"></path><path d="m -10 0 a 10 10 0 0 1 20 0 l 0 120 a 10 10 0 0 1 -20 0 l 0 -120 z m 5 -20 m 0 20 a 5 5 0 0 0 10 0 5 5 0 0 0 -10 0 m 0 20 m 0 20 m 0 20 m 0 20 m 0 20 m 0 20 a 5 5 0 0 0 10 0 5 5 0 0 0 -10 0" transform="rotate(-120) translate(0 175.42826400978524) rotate(110)" opacity="0.5"></path><path d="m -10 0 a 10 10 0 0 1 20 0 l 0 120 a 10 10 0 0 1 -20 0 l 0 -120 z m 5 -20 m 0 20 a 5 5 0 0 0 10 0 5 5 0 0 0 -10 0 m 0 20 m 0 20 m 0 20 m 0 20 m 0 20 m 0 20 a 5 5 0 0 0 10 0 5 5 0 0 0 -10 0" transform="rotate(-160) translate(0 175.42826400978524) rotate(110)" opacity="0.5"></path><path d="m -10 0 a 10 10 0 0 1 20 0 l 0 120 a 10 10 0 0 1 -20 0 l 0 -120 z m 5 -20 m 0 20 a 5 5 0 0 0 10 0 5 5 0 0 0 -10 0 m 0 20 m 0 20 m 0 20 m 0 20 m 0 20 m 0 20 a 5 5 0 0 0 10 0 5 5 0 0 0 -10 0" transform="rotate(-200) translate(0 175.42826400978524) rotate(110)" opacity="0.5"></path><path d="m -10 0 a 10 10 0 0 1 20 0 l 0 120 a 10 10 0 0 1 -20 0 l 0 -120 z m 5 -20 m 0 20 a 5 5 0 0 0 10 0 5 5 0 0 0 -10 0 m 0 20 m 0 20 m 0 20 m 0 20 m 0 20 m 0 20 a 5 5 0 0 0 10 0 5 5 0 0 0 -10 0" transform="rotate(-240) translate(0 175.42826400978524) rotate(110)" opacity="0.5"></path><path d="m -10 0 a 10 10 0 0 1 20 0 l 0 120 a 10 10 0 0 1 -20 0 l 0 -120 z m 5 -20 m 0 20 a 5 5 0 0 0 10 0 5 5 0 0 0 -10 0 m 0 20 m 0 20 m 0 20 m 0 20 m 0 20 m 0 20 a 5 5 0 0 0 10 0 5 5 0 0 0 -10 0" transform="rotate(-280) translate(0 175.42826400978524) rotate(110)" opacity="0.5"></path><path d="m -10 0 a 10 10 0 0 1 20 0 l 0 120 a 10 10 0 0 1 -20 0 l 0 -120 z m 5 -20 m 0 20 a 5 5 0 0 0 10 0 5 5 0 0 0 -10 0 m 0 20 m 0 20 m 0 20 m 0 20 m 0 20 m 0 20 a 5 5 0 0 0 10 0 5 5 0 0 0 -10 0" transform="rotate(-320) translate(0 175.42826400978524) rotate(110)" opacity="0.5"></path></g><g fill="#abc"><path d="m -10 0 a 10 10 0 0 1 20 0 l 0 120 a 10 10 0 0 1 -20 0 l 0 -120 z m 5 -20 m 0 20 a 5 5 0 0 0 10 0 5 5 0 0 0 -10 0 m 0 20 m 0 20 m 0 20 m 0 20 m 0 20 m 0 20 a 5 5 0 0 0 10 0 5 5 0 0 0 -10 0" transform="rotate(0) translate(0 175.42826400978524) rotate(150)" opacity="0.5"></path><path d="m -10 0 a 10 10 0 0 1 20 0 l 0 120 a 10 10 0 0 1 -20 0 l 0 -120 z m 5 -20 m 0 20 a 5 5 0 0 0 10 0 5 5 0 0 0 -10 0 m 0 20 m 0 20 m 0 20 m 0 20 m 0 20 m 0 20 a 5 5 0 0 0 10 0 5 5 0 0 0 -10 0" transform="rotate(0) translate(0 175.42826400978524) rotate(210)" opacity="0.5"></path><path d="m -10 0 a 10 10 0 0 1 20 0 l 0 120 a 10 10 0 0 1 -20 0 l 0 -120 z m 5 -20 m 0 20 a 5 5 0 0 0 10 0 5 5 0 0 0 -10 0 m 0 20 m 0 20 m 0 20 m 0 20 m 0 20 m 0 20 a 5 5 0 0 0 10 0 5 5 0 0 0 -10 0" transform="rotate(0) translate(0 175.42826400978524) rotate(210) translate(0 120) rotate(-120)" opacity="0.5"></path><path d="m -10 0 a 10 10 0 0 1 20 0 l 0 120 a 10 10 0 0 1 -20 0 l 0 -120 z m 5 -20 m 0 20 a 5 5 0 0 0 10 0 5 5 0 0 0 -10 0 m 0 20 m 0 20 m 0 20 m 0 20 m 0 20 m 0 20 a 5 5 0 0 0 10 0 5 5 0 0 0 -10 0" transform="rotate(-40) translate(0 175.42826400978524) rotate(150)" opacity="0.5"></path><path d="m -10 0 a 10 10 0 0 1 20 0 l 0 120 a 10 10 0 0 1 -20 0 l 0 -120 z m 5 -20 m 0 20 a 5 5 0 0 0 10 0 5 5 0 0 0 -10 0 m 0 20 m 0 20 m 0 20 m 0 20 m 0 20 m 0 20 a 5 5 0 0 0 10 0 5 5 0 0 0 -10 0" transform="rotate(-40) translate(0 175.42826400978524) rotate(210)" opacity="0.5"></path><path d="m -10 0 a 10 10 0 0 1 20 0 l 0 120 a 10 10 0 0 1 -20 0 l 0 -120 z m 5 -20 m 0 20 a 5 5 0 0 0 10 0 5 5 0 0 0 -10 0 m 0 20 m 0 20 m 0 20 m 0 20 m 0 20 m 0 20 a 5 5 0 0 0 10 0 5 5 0 0 0 -10 0" transform="rotate(-40) translate(0 175.42826400978524) rotate(210) translate(0 120) rotate(-120)" opacity="0.5"></path><path d="m -10 0 a 10 10 0 0 1 20 0 l 0 120 a 10 10 0 0 1 -20 0 l 0 -120 z m 5 -20 m 0 20 a 5 5 0 0 0 10 0 5 5 0 0 0 -10 0 m 0 20 m 0 20 m 0 20 m 0 20 m 0 20 m 0 20 a 5 5 0 0 0 10 0 5 5 0 0 0 -10 0" transform="rotate(-80) translate(0 175.42826400978524) rotate(150)" opacity="0.5"></path><path d="m -10 0 a 10 10 0 0 1 20 0 l 0 120 a 10 10 0 0 1 -20 0 l 0 -120 z m 5 -20 m 0 20 a 5 5 0 0 0 10 0 5 5 0 0 0 -10 0 m 0 20 m 0 20 m 0 20 m 0 20 m 0 20 m 0 20 a 5 5 0 0 0 10 0 5 5 0 0 0 -10 0" transform="rotate(-80) translate(0 175.42826400978524) rotate(210)" opacity="0.5"></path><path d="m -10 0 a 10 10 0 0 1 20 0 l 0 120 a 10 10 0 0 1 -20 0 l 0 -120 z m 5 -20 m 0 20 a 5 5 0 0 0 10 0 5 5 0 0 0 -10 0 m 0 20 m 0 20 m 0 20 m 0 20 m 0 20 m 0 20 a 5 5 0 0 0 10 0 5 5 0 0 0 -10 0" transform="rotate(-80) translate(0 175.42826400978524) rotate(210) translate(0 120) rotate(-120)" opacity="0.5"></path><path d="m -10 0 a 10 10 0 0 1 20 0 l 0 120 a 10 10 0 0 1 -20 0 l 0 -120 z m 5 -20 m 0 20 a 5 5 0 0 0 10 0 5 5 0 0 0 -10 0 m 0 20 m 0 20 m 0 20 m 0 20 m 0 20 m 0 20 a 5 5 0 0 0 10 0 5 5 0 0 0 -10 0" transform="rotate(-120) translate(0 175.42826400978524) rotate(150)" opacity="0.5"></path><path d="m -10 0 a 10 10 0 0 1 20 0 l 0 120 a 10 10 0 0 1 -20 0 l 0 -120 z m 5 -20 m 0 20 a 5 5 0 0 0 10 0 5 5 0 0 0 -10 0 m 0 20 m 0 20 m 0 20 m 0 20 m 0 20 m 0 20 a 5 5 0 0 0 10 0 5 5 0 0 0 -10 0" transform="rotate(-120) translate(0 175.42826400978524) rotate(210)" opacity="0.5"></path><path d="m -10 0 a 10 10 0 0 1 20 0 l 0 120 a 10 10 0 0 1 -20 0 l 0 -120 z m 5 -20 m 0 20 a 5 5 0 0 0 10 0 5 5 0 0 0 -10 0 m 0 20 m 0 20 m 0 20 m 0 20 m 0 20 m 0 20 a 5 5 0 0 0 10 0 5 5 0 0 0 -10 0" transform="rotate(-120) translate(0 175.42826400978524) rotate(210) translate(0 120) rotate(-120)" opacity="0.5"></path><path d="m -10 0 a 10 10 0 0 1 20 0 l 0 120 a 10 10 0 0 1 -20 0 l 0 -120 z m 5 -20 m 0 20 a 5 5 0 0 0 10 0 5 5 0 0 0 -10 0 m 0 20 m 0 20 m 0 20 m 0 20 m 0 20 m 0 20 a 5 5 0 0 0 10 0 5 5 0 0 0 -10 0" transform="rotate(-160) translate(0 175.42826400978524) rotate(150)" opacity="0.5"></path><path d="m -10 0 a 10 10 0 0 1 20 0 l 0 120 a 10 10 0 0 1 -20 0 l 0 -120 z m 5 -20 m 0 20 a 5 5 0 0 0 10 0 5 5 0 0 0 -10 0 m 0 20 m 0 20 m 0 20 m 0 20 m 0 20 m 0 20 a 5 5 0 0 0 10 0 5 5 0 0 0 -10 0" transform="rotate(-160) translate(0 175.42826400978524) rotate(210)" opacity="0.5"></path><path d="m -10 0 a 10 10 0 0 1 20 0 l 0 120 a 10 10 0 0 1 -20 0 l 0 -120 z m 5 -20 m 0 20 a 5 5 0 0 0 10 0 5 5 0 0 0 -10 0 m 0 20 m 0 20 m 0 20 m 0 20 m 0 20 m 0 20 a 5 5 0 0 0 10 0 5 5 0 0 0 -10 0" transform="rotate(-160) translate(0 175.42826400978524) rotate(210) translate(0 120) rotate(-120)" opacity="0.5"></path><path d="m -10 0 a 10 10 0 0 1 20 0 l 0 120 a 10 10 0 0 1 -20 0 l 0 -120 z m 5 -20 m 0 20 a 5 5 0 0 0 10 0 5 5 0 0 0 -10 0 m 0 20 m 0 20 m 0 20 m 0 20 m 0 20 m 0 20 a 5 5 0 0 0 10 0 5 5 0 0 0 -10 0" transform="rotate(-200) translate(0 175.42826400978524) rotate(150)" opacity="0.5"></path><path d="m -10 0 a 10 10 0 0 1 20 0 l 0 120 a 10 10 0 0 1 -20 0 l 0 -120 z m 5 -20 m 0 20 a 5 5 0 0 0 10 0 5 5 0 0 0 -10 0 m 0 20 m 0 20 m 0 20 m 0 20 m 0 20 m 0 20 a 5 5 0 0 0 10 0 5 5 0 0 0 -10 0" transform="rotate(-200) translate(0 175.42826400978524) rotate(210)" opacity="0.5"></path><path d="m -10 0 a 10 10 0 0 1 20 0 l 0 120 a 10 10 0 0 1 -20 0 l 0 -120 z m 5 -20 m 0 20 a 5 5 0 0 0 10 0 5 5 0 0 0 -10 0 m 0 20 m 0 20 m 0 20 m 0 20 m 0 20 m 0 20 a 5 5 0 0 0 10 0 5 5 0 0 0 -10 0" transform="rotate(-200) translate(0 175.42826400978524) rotate(210) translate(0 120) rotate(-120)" opacity="0.5"></path><path d="m -10 0 a 10 10 0 0 1 20 0 l 0 120 a 10 10 0 0 1 -20 0 l 0 -120 z m 5 -20 m 0 20 a 5 5 0 0 0 10 0 5 5 0 0 0 -10 0 m 0 20 m 0 20 m 0 20 m 0 20 m 0 20 m 0 20 a 5 5 0 0 0 10 0 5 5 0 0 0 -10 0" transform="rotate(-240) translate(0 175.42826400978524) rotate(150)" opacity="0.5"></path><path d="m -10 0 a 10 10 0 0 1 20 0 l 0 120 a 10 10 0 0 1 -20 0 l 0 -120 z m 5 -20 m 0 20 a 5 5 0 0 0 10 0 5 5 0 0 0 -10 0 m 0 20 m 0 20 m 0 20 m 0 20 m 0 20 m 0 20 a 5 5 0 0 0 10 0 5 5 0 0 0 -10 0" transform="rotate(-240) translate(0 175.42826400978524) rotate(210)" opacity="0.5"></path><path d="m -10 0 a 10 10 0 0 1 20 0 l 0 120 a 10 10 0 0 1 -20 0 l 0 -120 z m 5 -20 m 0 20 a 5 5 0 0 0 10 0 5 5 0 0 0 -10 0 m 0 20 m 0 20 m 0 20 m 0 20 m 0 20 m 0 20 a 5 5 0 0 0 10 0 5 5 0 0 0 -10 0" transform="rotate(-240) translate(0 175.42826400978524) rotate(210) translate(0 120) rotate(-120)" opacity="0.5"></path><path d="m -10 0 a 10 10 0 0 1 20 0 l 0 120 a 10 10 0 0 1 -20 0 l 0 -120 z m 5 -20 m 0 20 a 5 5 0 0 0 10 0 5 5 0 0 0 -10 0 m 0 20 m 0 20 m 0 20 m 0 20 m 0 20 m 0 20 a 5 5 0 0 0 10 0 5 5 0 0 0 -10 0" transform="rotate(-280) translate(0 175.42826400978524) rotate(150)" opacity="0.5"></path><path d="m -10 0 a 10 10 0 0 1 20 0 l 0 120 a 10 10 0 0 1 -20 0 l 0 -120 z m 5 -20 m 0 20 a 5 5 0 0 0 10 0 5 5 0 0 0 -10 0 m 0 20 m 0 20 m 0 20 m 0 20 m 0 20 m 0 20 a 5 5 0 0 0 10 0 5 5 0 0 0 -10 0" transform="rotate(-280) translate(0 175.42826400978524) rotate(210)" opacity="0.5"></path><path d="m -10 0 a 10 10 0 0 1 20 0 l 0 120 a 10 10 0 0 1 -20 0 l 0 -120 z m 5 -20 m 0 20 a 5 5 0 0 0 10 0 5 5 0 0 0 -10 0 m 0 20 m 0 20 m 0 20 m 0 20 m 0 20 m 0 20 a 5 5 0 0 0 10 0 5 5 0 0 0 -10 0" transform="rotate(-280) translate(0 175.42826400978524) rotate(210) translate(0 120) rotate(-120)" opacity="0.5"></path><path d="m -10 0 a 10 10 0 0 1 20 0 l 0 120 a 10 10 0 0 1 -20 0 l 0 -120 z m 5 -20 m 0 20 a 5 5 0 0 0 10 0 5 5 0 0 0 -10 0 m 0 20 m 0 20 m 0 20 m 0 20 m 0 20 m 0 20 a 5 5 0 0 0 10 0 5 5 0 0 0 -10 0" transform="rotate(-320) translate(0 175.42826400978524) rotate(150)" opacity="0.5"></path><path d="m -10 0 a 10 10 0 0 1 20 0 l 0 120 a 10 10 0 0 1 -20 0 l 0 -120 z m 5 -20 m 0 20 a 5 5 0 0 0 10 0 5 5 0 0 0 -10 0 m 0 20 m 0 20 m 0 20 m 0 20 m 0 20 m 0 20 a 5 5 0 0 0 10 0 5 5 0 0 0 -10 0" transform="rotate(-320) translate(0 175.42826400978524) rotate(210)" opacity="0.5"></path><path d="m -10 0 a 10 10 0 0 1 20 0 l 0 120 a 10 10 0 0 1 -20 0 l 0 -120 z m 5 -20 m 0 20 a 5 5 0 0 0 10 0 5 5 0 0 0 -10 0 m 0 20 m 0 20 m 0 20 m 0 20 m 0 20 m 0 20 a 5 5 0 0 0 10 0 5 5 0 0 0 -10 0" transform="rotate(-320) translate(0 175.42826400978524) rotate(210) translate(0 120) rotate(-120)" opacity="0.5"></path></g></g></svg>